<?xml version="1.0" encoding="utf-8"?>
<!-- Generator: Adobe Illustrator 25.0.0, SVG Export Plug-In . SVG Version: 6.00 Build 0)  -->
<svg version="1.1" id="OBJECTS" xmlns="http://www.w3.org/2000/svg" xmlns:xlink="http://www.w3.org/1999/xlink" x="0px" y="0px"
	 viewBox="0 0 299.66 299.66" style="enable-background:new 0 0 299.66 299.66;" xml:space="preserve">
<style type="text/css">
	.st0{display:none;}
	.st1{display:inline;fill:#76B1D6;stroke:#040203;stroke-width:0.5;stroke-miterlimit:10;}
	
		.st2{display:inline;fill:#FFFFFF;stroke:#040203;stroke-width:0.5;stroke-linecap:round;stroke-linejoin:round;stroke-miterlimit:10;}
	.st3{display:inline;}
	.st4{fill:#FFA92E;stroke:#040203;stroke-width:0.5;stroke-miterlimit:10;}
	.st5{fill:#61DBAC;stroke:#040203;stroke-width:0.5;stroke-miterlimit:10;}
	.st6{fill:#FFFFFF;stroke:#040203;stroke-width:0.5;stroke-linecap:round;stroke-linejoin:round;stroke-miterlimit:10;}
	.st7{fill:#FEF7F2;}
	.st8{fill:#222221;}
	.st9{fill:#FF7259;stroke:#040203;stroke-width:0.5;stroke-miterlimit:10;}
	.st10{fill:none;stroke:#222221;stroke-width:0.5;stroke-linecap:round;stroke-linejoin:round;stroke-miterlimit:10;}
	.st11{fill:#FEF7F2;stroke:#222221;stroke-width:0.5;stroke-linecap:round;stroke-linejoin:round;stroke-miterlimit:10;}
	.st12{fill:#FFFFFF;}
	.st13{font-family:'Montserrat-Black';}
	.st14{font-size:24.1018px;}
	.st15{display:inline;fill:#FFB8F5;stroke:#040203;stroke-width:0.5;stroke-miterlimit:10;}
	.st16{fill:#80D0F5;stroke:#040203;stroke-width:0.5;stroke-linecap:round;stroke-linejoin:round;stroke-miterlimit:10;}
	.st17{fill:#76B1D6;stroke:#040203;stroke-width:0.5;stroke-miterlimit:10;}
	.st18{display:inline;fill:#383838;}
	.st19{fill:#FFB8F5;stroke:#040203;stroke-width:0.5;stroke-miterlimit:10;}
	.st20{fill:#5D1D71;}
	.st21{fill:#383838;}
</style>
<g class="st0">
	<path class="st1" d="M95.63,242.15c-15.39,0-27.91-13.05-27.91-29.1V86.6c0-16.04,12.52-29.1,27.91-29.1h108.41
		c15.39,0,27.91,13.05,27.91,29.1v126.45c0,16.04-12.52,29.1-27.91,29.1H95.63z"/>
	<path class="st2" d="M95.63,236.8c-12.44,0-22.56-10.65-22.56-23.74V86.6c0-13.09,10.12-23.74,22.56-23.74h108.41
		c12.44,0,22.56,10.65,22.56,23.74v126.45c0,13.09-10.12,23.74-22.56,23.74H95.63z"/>
	<path class="st1" d="M78.43,86.6v126.45c0,10.15,7.7,18.38,17.2,18.38h108.41c9.5,0,17.2-8.23,17.2-18.38V86.6
		c0-10.15-7.7-18.38-17.2-18.38H95.63C86.13,68.22,78.43,76.45,78.43,86.6z"/>
	<g class="st3">
		<path class="st4" d="M126.25,84.63L126.25,84.63c-0.49-0.67-0.35-1.61,0.31-2.1l6.01-4.45c0.67-0.49,1.61-0.35,2.1,0.31l0,0
			c0.49,0.67,0.35,1.61-0.31,2.1l-6.01,4.45C127.69,85.44,126.74,85.3,126.25,84.63z"/>
		<path class="st4" d="M188.04,159.18L188.04,159.18c-0.78,0.29-1.64-0.12-1.93-0.9l-2.57-7.02c-0.29-0.78,0.12-1.64,0.9-1.93l0,0
			c0.78-0.29,1.64,0.12,1.93,0.9l2.57,7.02C189.22,158.03,188.82,158.89,188.04,159.18z"/>
		<path class="st5" d="M85.93,98.17L85.93,98.17c0.45-0.7,1.37-0.91,2.08-0.46l6.31,4.01c0.7,0.45,0.91,1.37,0.46,2.08l0,0
			c-0.45,0.7-1.37,0.91-2.08,0.46l-6.31-4.01C85.69,99.8,85.48,98.87,85.93,98.17z"/>
		<path class="st5" d="M84.54,139.58L84.54,139.58c-0.46-0.69-0.27-1.63,0.43-2.08l6.24-4.12c0.69-0.46,1.63-0.27,2.08,0.43l0,0
			c0.46,0.69,0.27,1.63-0.43,2.08L86.62,140C85.93,140.46,85,140.27,84.54,139.58z"/>
		<path class="st5" d="M205.5,170.21L205.5,170.21c-0.7,0.45-1.63,0.25-2.08-0.44l-4.07-6.27c-0.45-0.7-0.25-1.63,0.44-2.08l0,0
			c0.7-0.45,1.63-0.25,2.08,0.44l4.07,6.27C206.4,168.83,206.2,169.76,205.5,170.21z"/>
		<path class="st6" d="M131.17,98.38L131.17,98.38c0.72-0.41,1.64-0.15,2.05,0.58l3.66,6.52c0.41,0.72,0.15,1.64-0.58,2.05l0,0
			c-0.72,0.41-1.64,0.15-2.05-0.58l-3.66-6.52C130.19,99.71,130.45,98.79,131.17,98.38z"/>
		<path class="st6" d="M84.46,159.89L84.46,159.89c0.72-0.41,1.64-0.15,2.05,0.58l3.66,6.52c0.41,0.72,0.15,1.64-0.58,2.05l0,0
			c-0.72,0.41-1.64,0.15-2.05-0.58l-3.66-6.52C83.47,161.21,83.73,160.29,84.46,159.89z"/>
		<path class="st6" d="M197.4,179.13L197.4,179.13c0.8,0.23,1.26,1.06,1.03,1.86l-2.06,7.19c-0.23,0.8-1.06,1.26-1.86,1.03l0,0
			c-0.8-0.23-1.26-1.06-1.03-1.86l2.06-7.19C195.77,179.36,196.6,178.9,197.4,179.13z"/>
		<path class="st5" d="M147.4,109.88L147.4,109.88c0.42-0.72,1.34-0.97,2.05-0.55l6.48,3.74c0.72,0.42,0.97,1.34,0.55,2.05l0,0
			c-0.42,0.72-1.34,0.97-2.05,0.55l-6.48-3.74C147.23,111.52,146.98,110.6,147.4,109.88z"/>
		<path class="st4" d="M91.14,83.11L91.14,83.11c0.42-0.72,1.34-0.97,2.05-0.55l6.48,3.74c0.72,0.42,0.97,1.34,0.55,2.06l0,0
			c-0.42,0.72-1.34,0.97-2.05,0.55l-6.48-3.74C90.97,84.75,90.72,83.83,91.14,83.11z"/>
		<path class="st5" d="M181.7,213.36L181.7,213.36c0.42-0.72,1.34-0.97,2.05-0.55l6.48,3.74c0.72,0.42,0.97,1.34,0.55,2.05l0,0
			c-0.42,0.72-1.34,0.97-2.05,0.55l-6.48-3.74C181.53,215,181.28,214.08,181.7,213.36z"/>
		<path class="st4" d="M196.66,202.12L196.66,202.12c-0.53-0.64-0.45-1.59,0.19-2.12l5.74-4.8c0.64-0.53,1.59-0.45,2.12,0.19l0,0
			c0.53,0.64,0.45,1.59-0.19,2.12l-5.74,4.8C198.14,202.84,197.19,202.75,196.66,202.12z"/>
	</g>
	<g class="st3">
		<g>
			<g id="XMLID_59_">
				<g>
					<path class="st7" d="M132.81,185.66l-0.01,0c-0.84,1.33-1.86,2.61-3.26,3.34c-1.39,0.73-3.22,0.81-4.46-0.16l-0.05,0.02
						c-2.13-4.46-3.44-9.32-3.8-14.26c-0.16-2.13-0.14-4.28,0.06-6.4c13.29-8.77,27.52-16.1,42.37-21.82l0.01,0.02
						c2.22,1.12,4.23,2.68,5.97,4.52c4.07,4.25,6.76,10.05,7.47,15.76c1.01,8.18-1.04,16.48-4.28,24.25
						c1.71-0.98,4.09-0.4,5.32,1.15c1.24,1.54,1.37,3.81,0.54,5.6c-0.85,1.78-2.55,3.09-4.51,3.56c1.06,4.61,1.01,9.47-0.15,14.05
						c-0.3,1.18-0.73,2.43-1.75,3.08c-1.18,0.74-2.79,0.4-3.91-0.44c-1.11-0.84-1.84-2.08-2.66-3.32c-0.12,1.2-0.37,2.4-0.92,3.46
						c-0.55,1.07-1.43,2-2.53,2.46c-1.11,0.45-2.47,0.38-3.43-0.34c-1.03-0.77-1.46-2.1-1.96-3.39c-0.62,1.88-1.67,3.71-3.34,4.76
						c-1.67,1.06-4.05,1.15-5.52-0.19c-0.99-0.89-1.42-2.23-1.86-3.52c-0.31,1.52-1.09,2.99-2.37,3.86
						c-1.28,0.86-3.09,1.01-4.35,0.11c-1.55-1.1-1.82-3.26-1.94-5.16l-0.32-4.88c-0.06-0.92-0.16-1.93-0.83-2.57
						c-0.7-0.67-1.82-0.69-2.76-0.4c-0.93,0.3-1.76,0.84-2.67,1.18c-2.79,1.03-6.24-0.22-7.72-2.8c-0.92-1.6-1.05-3.73,0.05-5.22
						c0.96-1.3,2.62-1.84,4.17-2.31c1.3-0.39,2.6-0.78,3.9-1.17c0.42-0.13,0.84-0.25,1.25-0.38c1.2-0.36,2.53-0.83,3.04-1.98
						c0.58-1.28-0.18-2.73-0.79-3.99C133.8,190.1,133.13,187.91,132.81,185.66z M163.07,206.37c-0.02-0.86-0.37-1.68-0.76-2.44
						c-1.5-2.96-3.42-6.43-6.55-7.15c-0.58-0.14-1.19,0.07-1.67,0.44c-0.47,0.36-0.83,0.84-1.17,1.33
						c-1.72,2.49-3.11,5.22-3.96,8.13c-0.24,0.84-0.44,1.74-0.24,2.59c0.2,0.85,0.92,1.65,1.8,1.65c0.91,0.01,1.61-0.76,2.15-1.5
						c1.4-1.91,2.53-4.01,3.36-6.23c0.56,0.95,1.14,1.9,1.7,2.85c0.47,0.78,0.95,1.57,1.67,2.12c0.72,0.55,1.74,0.8,2.54,0.38
						C162.71,208.14,163.09,207.23,163.07,206.37z"/>
					<path class="st8" d="M162.32,203.93c0.39,0.76,0.74,1.58,0.76,2.44c0.02,0.86-0.36,1.78-1.13,2.18
						c-0.8,0.42-1.82,0.17-2.54-0.38c-0.72-0.54-1.2-1.34-1.67-2.12c-0.56-0.95-1.14-1.9-1.7-2.85c-0.83,2.22-1.96,4.32-3.36,6.23
						c-0.54,0.73-1.24,1.5-2.15,1.5c-0.88-0.01-1.6-0.8-1.8-1.65c-0.2-0.85,0-1.75,0.24-2.59c0.85-2.91,2.24-5.64,3.96-8.13
						c0.33-0.49,0.69-0.97,1.17-1.33c0.48-0.36,1.09-0.57,1.67-0.44C158.89,197.5,160.81,200.97,162.32,203.93z"/>
					<path class="st8" d="M134.8,192.15c0.61,1.26,1.36,2.7,0.79,3.99c-0.51,1.15-1.84,1.62-3.04,1.98
						c-0.41,0.13-0.84,0.25-1.25,0.38l-0.1-0.35c-2.49-2.78-4.56-5.92-6.17-9.28l0.05-0.02c1.24,0.97,3.07,0.89,4.46,0.16
						c1.4-0.74,2.42-2.02,3.26-3.34l0.01,0C133.13,187.91,133.8,190.1,134.8,192.15z"/>
					<path class="st7" d="M102.24,209.02c0.12-0.66,0.33-1.31,0.57-1.93c0.77-2.01,1.75-3.95,2.93-5.76
						c1.01-1.56,2.19-3.06,3.75-4.06c0.26-0.16,0.52-0.3,0.79-0.43l0-0.01c1.43-0.67,3.08-0.87,4.53-0.31
						c2.45,0.96,3.66,3.87,3.51,6.5c-0.14,2.63-1.33,5.07-2.42,7.47c-2.98,6.6-5.36,13.69-5.11,20.94H99.34
						c0.52-3.59,0.74-7.22,0.68-10.84l0.01-0.06c-2.42-0.39-4.71-1.67-6.17-3.63c-1.58-2.11-2.09-5.02-1.13-7.48
						c1.05,0.54,2.16,0.99,3.29,1.35c0.87,0.28,1.77,0.5,2.68,0.45c0.91-0.05,1.84-0.41,2.41-1.12c0.28-0.35,0.45-0.76,0.53-1.2
						L102.24,209.02z"/>
					<path class="st9" d="M108.86,148.57c0.46,3.16,0.57,6.37,0.32,9.55c-0.04,0.51-0.14,1.1-0.59,1.33
						c-0.29,0.16-0.66,0.1-0.98,0.04c-2.81-0.54-5.57-1.3-8.26-2.26c-1.51-0.54-3.02-1.16-4.22-2.21c-1.2-1.05-2.07-2.62-1.91-4.21
						c0.14-1.42,1.14-2.72,2.48-3.23c1.34-0.5,2.94-0.19,4,0.78c0.2-1.37,0.43-2.75,1.11-3.91c0.68-1.16,1.9-2.09,3.25-2.12
						c1.45-0.05,2.78,0.91,3.54,2.14C108.35,145.68,108.65,147.14,108.86,148.57z"/>
					<path class="st7" d="M110.28,196.84L110.28,196.84c-0.27,0.13-0.53,0.27-0.79,0.43c-1.56,1-2.75,2.49-3.75,4.06
						c-1.17,1.81-2.15,3.75-2.93,5.76c-0.24,0.61-0.45,1.27-0.57,1.93l-0.62-0.09c0.16-0.91-0.1-1.91-0.63-2.69
						c-0.78-1.15-2.02-1.89-3.28-2.49c-2.28-1.1-4.72-1.89-7.22-2.33l-0.06-0.05c0.04-0.04,0.07-0.09,0.1-0.13
						c-1.1-2.31-2.64-4.16-4.19-5.97c-1.54-1.8-3.12-3.61-4.16-5.74c-1.05-2.13-1.5-4.66-0.69-6.89c0.81-2.23,3.11-3.99,5.46-3.68
						c2.43,0.33,4.1,2.54,5.46,4.58c2.5,3.77,4.93,7.59,7.27,11.45c-1.04-4.76-1.8-9.46-2.03-14.19c-0.09-1.75-0.09-3.55,0.51-5.19
						c0.59-1.64,1.9-3.13,3.62-3.49c1.4-0.28,2.88,0.23,3.99,1.14c1.1,0.91,1.86,2.18,2.38,3.51c2.45,6.27,0.09,13.55,2.08,19.99
						L110.28,196.84z"/>
					<path class="st7" d="M92.72,209.43c-0.5-0.25-1-0.52-1.48-0.82c-1.04-0.63-2.09-1.44-2.43-2.6c-0.49-1.64,0.58-3.29,1.63-4.66
						l0.06,0.05c2.5,0.44,4.93,1.23,7.22,2.33c1.26,0.6,2.5,1.34,3.28,2.49c0.53,0.78,0.79,1.78,0.63,2.69
						c-0.08,0.44-0.25,0.85-0.53,1.2c-0.57,0.71-1.5,1.07-2.41,1.12c-0.91,0.05-1.81-0.17-2.68-0.45
						C94.88,210.42,93.77,209.97,92.72,209.43z"/>
				</g>
				<g>
					<path class="st10" d="M163.66,146.4c2.22,1.12,4.23,2.68,5.97,4.52c4.07,4.25,6.76,10.05,7.47,15.76
						c1.01,8.18-1.04,16.48-4.28,24.25c1.71-0.98,4.09-0.4,5.32,1.15c1.24,1.54,1.37,3.81,0.54,5.6c-0.85,1.78-2.55,3.09-4.51,3.56
						c1.06,4.61,1.01,9.47-0.15,14.05c-0.3,1.18-0.73,2.43-1.75,3.08c-1.18,0.74-2.79,0.4-3.91-0.44c-1.11-0.84-1.84-2.08-2.66-3.32
						c-0.12,1.2-0.37,2.4-0.92,3.46c-0.55,1.07-1.43,2-2.53,2.46c-1.11,0.45-2.47,0.38-3.43-0.34c-1.03-0.77-1.46-2.1-1.96-3.39
						c-0.62,1.88-1.67,3.71-3.34,4.76c-1.67,1.06-4.05,1.15-5.52-0.19c-0.99-0.89-1.42-2.23-1.86-3.52
						c-0.31,1.52-1.09,2.99-2.37,3.86c-1.28,0.86-3.09,1.01-4.35,0.11c-1.55-1.1-1.82-3.26-1.94-5.16l-0.32-4.88
						c-0.06-0.92-0.16-1.93-0.83-2.57c-0.7-0.67-1.82-0.69-2.76-0.4c-0.93,0.3-1.76,0.84-2.67,1.18c-2.79,1.03-6.24-0.22-7.72-2.8
						c-0.92-1.6-1.05-3.73,0.05-5.22c0.96-1.3,2.62-1.84,4.17-2.31c1.3-0.39,2.6-0.78,3.9-1.17c0.42-0.13,0.84-0.25,1.25-0.38
						c1.2-0.36,2.53-0.83,3.04-1.98c0.58-1.28-0.18-2.73-0.79-3.99c-1-2.05-1.67-4.24-1.99-6.49c-0.37-2.41-0.34-4.87,0.09-7.27"/>
					<path class="st10" d="M131.19,198.15c-2.49-2.78-4.56-5.92-6.17-9.28c-2.13-4.46-3.44-9.32-3.8-14.26
						c-0.16-2.13-0.14-4.28,0.06-6.4"/>
					<path class="st10" d="M135.45,164.28c1.04-2.48,2.6-4.73,4.55-6.56"/>
					<path class="st10" d="M161.69,152.72c2.32,1.05,4.2,3.01,5.17,5.35"/>
					<path class="st10" d="M155.77,196.78c-0.58-0.14-1.19,0.07-1.67,0.44c-0.47,0.36-0.83,0.84-1.17,1.33
						c-1.72,2.49-3.11,5.22-3.96,8.13c-0.24,0.84-0.44,1.74-0.24,2.59c0.2,0.85,0.92,1.65,1.8,1.65c0.91,0.01,1.61-0.76,2.15-1.5
						c1.4-1.91,2.53-4.01,3.36-6.23c0.56,0.95,1.14,1.9,1.7,2.85c0.47,0.78,0.95,1.57,1.67,2.12c0.72,0.55,1.74,0.8,2.54,0.38
						c0.77-0.4,1.15-1.31,1.13-2.18c-0.02-0.86-0.37-1.68-0.76-2.44C160.81,200.97,158.89,197.5,155.77,196.78z"/>
					<path class="st10" d="M110.23,196.74c-1.99-6.44,0.38-13.72-2.08-19.99c-0.52-1.33-1.28-2.61-2.38-3.51
						c-1.1-0.91-2.59-1.42-3.99-1.14c-1.72,0.36-3.03,1.85-3.62,3.49c-0.6,1.65-0.6,3.45-0.51,5.19c0.23,4.73,1,9.43,2.03,14.19
						c-2.34-3.86-4.77-7.68-7.27-11.45c-1.36-2.04-3.03-4.25-5.46-4.58c-2.35-0.31-4.65,1.45-5.46,3.68
						c-0.81,2.23-0.35,4.76,0.69,6.89c1.04,2.13,2.62,3.94,4.16,5.74c1.55,1.8,3.09,3.66,4.19,5.97c-0.04,0.04-0.07,0.09-0.1,0.13
						c-1.06,1.37-2.12,3.02-1.63,4.66c0.35,1.17,1.4,1.97,2.43,2.6c0.48,0.29,0.98,0.56,1.48,0.82c1.05,0.54,2.16,0.99,3.29,1.35
						c0.87,0.28,1.77,0.5,2.68,0.45c0.91-0.05,1.84-0.41,2.41-1.12c0.28-0.35,0.45-0.76,0.53-1.2c0.16-0.91-0.1-1.91-0.63-2.69
						c-0.78-1.15-2.02-1.89-3.28-2.49c-2.28-1.1-4.72-1.89-7.22-2.33"/>
					<path class="st10" d="M92.73,209.38c-0.01,0.02-0.01,0.03-0.02,0.05c-0.96,2.46-0.45,5.37,1.13,7.48
						c1.46,1.97,3.75,3.24,6.17,3.63c0.2,0.04,0.41,0.06,0.61,0.08c2.64,0.28,5.33-0.43,7.63-1.76"/>
					<path class="st10" d="M100.01,220.6c0.06,3.63-0.16,7.25-0.68,10.84h11.45c-0.25-7.25,2.13-14.34,5.11-20.94
						c1.09-2.4,2.28-4.84,2.42-7.47c0.15-2.63-1.06-5.53-3.51-6.5c-1.45-0.57-3.1-0.36-4.53,0.31l0,0.01
						c-0.27,0.12-0.53,0.26-0.79,0.43c-1.56,1-2.75,2.49-3.75,4.06c-1.17,1.81-2.15,3.75-2.93,5.76c-0.24,0.61-0.45,1.27-0.57,1.93
						c-0.14,0.82-0.13,1.64,0.19,2.39c0.98,2.28,4.35,2.59,6.41,1.21c2.07-1.38,3.13-3.79,4.1-6.09"/>
					<path class="st5" d="M99.68,148.35c-1.05-0.97-2.66-1.28-4-0.78c-1.34,0.51-2.34,1.81-2.48,3.23
						c-0.16,1.59,0.71,3.16,1.91,4.21c1.2,1.05,2.71,1.67,4.22,2.21c2.69,0.97,5.45,1.72,8.26,2.26c0.33,0.06,0.69,0.12,0.98-0.04
						c0.45-0.23,0.55-0.82,0.59-1.33c0.25-3.18,0.14-6.39-0.32-9.55c-0.2-1.43-0.5-2.89-1.27-4.11c-0.76-1.23-2.1-2.19-3.54-2.14
						c-1.35,0.04-2.56,0.96-3.25,2.12C100.11,145.6,99.88,146.98,99.68,148.35z"/>
					<path class="st10" d="M125.07,188.84c1.24,0.97,3.07,0.89,4.46,0.16c1.4-0.74,2.42-2.02,3.26-3.34"/>
				</g>
			</g>
			<g>
				<g>
					<path class="st11" d="M168.82,178.55c0.43,7.87-2.6,14.43-6.77,14.65c-4.17,0.23-7.89-5.97-8.31-13.83
						c-0.43-7.87,2.6-14.43,6.77-14.65C164.67,164.49,168.4,170.69,168.82,178.55z"/>
					<path class="st8" d="M162.74,168.64c-2.4,0.13-4.29,3.08-4.83,7.07l3.86,2.37c0.88,0.54,0.91,1.85,0.07,2.43l-3.46,2.39
						c1.02,3.72,3.15,6.28,5.48,6.15c3.05-0.17,5.28-4.87,4.97-10.51C168.52,172.92,165.8,168.48,162.74,168.64z"/>
				</g>
				<g>
					<path class="st11" d="M155.4,179.63c0.43,7.87-2.6,14.43-6.77,14.65c-4.17,0.23-7.89-5.97-8.31-13.83
						c-0.43-7.87,2.6-14.43,6.77-14.65C151.25,165.57,154.98,171.76,155.4,179.63z"/>
					<path class="st8" d="M149.32,169.72c-2.4,0.13-4.29,3.08-4.83,7.07l3.86,2.37c0.88,0.54,0.91,1.85,0.07,2.43l-3.46,2.39
						c1.02,3.72,3.15,6.28,5.48,6.15c3.05-0.17,5.28-4.87,4.97-10.51C155.1,173.99,152.37,169.55,149.32,169.72z"/>
				</g>
			</g>
		</g>
		<g id="XMLID_18_">
			<path id="XMLID_26_" class="st9" d="M166.93,144.29c-3.41,5.6-9.57,11.26-16.8,15.79c-5.76,3.61-12.19,6.49-18.43,8.02
				l-0.01,0.01c-4.61,1.14-9.12,1.55-13.19,0.98c-1.03-5.15-1.94-10.59-2.76-16.13c-0.33-2.17-0.64-4.37-0.93-6.57
				c-0.98-7.12-1.82-14.31-2.61-21.24c-0.37-3.2-0.71-6.35-1.07-9.4c-0.56-5-1.11-9.75-1.67-14.1c2.56,2,5.23,4.03,7.99,6.1
				c2.1,1.58,4.25,3.17,6.43,4.78c4.99,3.69,10.17,7.44,15.32,11.18c2.02,1.46,4.04,2.92,6.04,4.38c3.89,2.84,7.75,5.66,11.47,8.44
				c2.04,1.51,4.03,3.01,5.98,4.5C164.13,142.12,165.55,143.2,166.93,144.29z"/>
			<path id="XMLID_25_" class="st4" d="M123.88,112.51c-1.85,2.54-3.78,4.79-5.29,6.43c-1.95,2.12-4.09,4.24-6.39,6.19
				c-0.37-3.2-0.71-6.35-1.07-9.4c0.92-0.94,1.8-1.94,2.66-2.99c1.3-1.61,2.52-3.28,3.66-5.01
				C119.55,109.31,121.7,110.91,123.88,112.51z"/>
			<path id="XMLID_24_" class="st4" d="M145.24,128.08c-0.35,0.41-0.7,0.81-1.01,1.19c-3.52,4.3-7.31,8.36-11.54,11.99
				c-5.34,4.59-10.89,8.47-16.94,11.69c-0.33-2.17-0.64-4.37-0.93-6.57c5.35-3.61,10.45-7.67,14.96-12.14
				c3.35-3.31,6.56-6.79,9.43-10.55C141.22,125.15,143.24,126.61,145.24,128.08z"/>
			<path id="XMLID_23_" class="st4" d="M162.69,141.02c-0.12,0.25-0.25,0.48-0.37,0.71c-2.65,5.11-5.58,10.14-9.14,14.67
				c-0.98,1.25-2,2.49-3.05,3.68c-5.76,3.61-12.19,6.49-18.43,8.02c6.18-5.47,12.28-11.02,17.08-17.8
				c3.06-4.34,5.65-8.98,7.93-13.78C158.75,138.02,160.75,139.53,162.69,141.02z"/>
			<path id="XMLID_20_" class="st5" d="M100.03,101.65c1.94,0.44,4.06,1.29,6,1.73c0.75,1.54,1.84,3.77,2.58,5.31
				c0.72-1.76,1.47-4.12,2.19-5.89c1.72,0.33,3.77,0.37,5.49,0.7c-1.09-1.47-2.44-3.03-3.53-4.5c0.7-1.56,1.38-3.77,2.09-5.32
				c-1.65,0.14-3.24,1.45-4.54,2.45c-1.72-1.71-3.45-3.42-5.17-5.13c0.24,2.46-0.14,5.57,0.1,8.04
				C103.69,100.02,101.58,100.68,100.03,101.65z"/>
		</g>
	</g>
	<text transform="matrix(1 0 0 1 163.7522 96.5614)" class="st3"><tspan x="0" y="0" class="st12 st13 st14">you</tspan><tspan x="3.13" y="20.53" class="st12 st13 st14">are</tspan><tspan x="3.15" y="41.06" class="st12 st13 st14">old</tspan></text>
</g>
<g class="st0">
	<path class="st15" d="M104.07,246.37c-17.02,0-30.86-13.84-30.86-30.86V135.4c0-45.28,36.84-82.12,82.12-82.12
		c45.28,0,82.12,36.84,82.12,82.12v80.11c0,17.02-13.84,30.86-30.86,30.86H104.07z"/>
	<path class="st2" d="M104.07,241.02c-14.06,0-25.51-11.44-25.51-25.51V135.4c0-42.33,34.43-76.76,76.76-76.76
		c42.33,0,76.76,34.43,76.76,76.76v80.11c0,14.06-11.44,25.51-25.51,25.51H104.07z"/>
	<path class="st15" d="M155.32,64L155.32,64c39.44,0,71.4,31.97,71.4,71.4v80.11c0,11.13-9.02,20.15-20.15,20.15H104.07
		c-11.13,0-20.15-9.02-20.15-20.15V135.4C83.92,95.97,115.89,64,155.32,64z"/>
	<g class="st3">
		<path class="st4" d="M132.06,80.52L132.06,80.52c-0.49-0.67-0.35-1.61,0.31-2.1l6.01-4.45c0.67-0.49,1.61-0.35,2.1,0.31l0,0
			c0.49,0.67,0.35,1.61-0.31,2.1l-6.01,4.45C133.5,81.32,132.56,81.18,132.06,80.52z"/>
		<path class="st4" d="M203.48,108.45L203.48,108.45c-0.78,0.29-1.64-0.12-1.93-0.9l-2.57-7.02c-0.29-0.78,0.12-1.64,0.9-1.93l0,0
			c0.78-0.29,1.64,0.12,1.93,0.9l2.57,7.02C204.67,107.3,204.26,108.16,203.48,108.45z"/>
		<path class="st16" d="M113.07,91.75L113.07,91.75c0.45-0.7,1.37-0.91,2.08-0.46l6.31,4.01c0.7,0.45,0.91,1.37,0.46,2.08l0,0
			c-0.45,0.7-1.37,0.91-2.08,0.46l-6.31-4.01C112.83,93.38,112.62,92.45,113.07,91.75z"/>
		<path class="st16" d="M95.59,116.89L95.59,116.89c-0.46-0.69-0.27-1.63,0.43-2.08l6.24-4.12c0.69-0.46,1.63-0.27,2.08,0.43l0,0
			c0.46,0.69,0.27,1.63-0.43,2.08l-6.24,4.12C96.98,117.77,96.05,117.58,95.59,116.89z"/>
		<path class="st6" d="M157.12,86.29L157.12,86.29c0.72-0.41,1.64-0.15,2.05,0.58l3.66,6.52c0.41,0.72,0.15,1.64-0.58,2.05l0,0
			c-0.72,0.41-1.64,0.15-2.05-0.58l-3.66-6.52C156.13,87.62,156.39,86.7,157.12,86.29z"/>
		<path class="st6" d="M92.78,164.48L92.78,164.48c0.72-0.41,1.64-0.15,2.05,0.58l3.66,6.52c0.41,0.72,0.15,1.64-0.58,2.05l0,0
			c-0.72,0.41-1.64,0.15-2.05-0.58l-3.66-6.52C91.79,165.8,92.05,164.88,92.78,164.48z"/>
		<path class="st16" d="M170.31,75.52L170.31,75.52c0.42-0.72,1.34-0.97,2.06-0.55l6.48,3.74c0.72,0.42,0.97,1.34,0.55,2.06l0,0
			c-0.42,0.72-1.34,0.97-2.05,0.55l-6.48-3.74C170.14,77.16,169.9,76.24,170.31,75.52z"/>
		<path class="st4" d="M213.52,154.55L213.52,154.55c-0.53-0.64-0.45-1.59,0.19-2.12l5.74-4.8c0.64-0.53,1.59-0.45,2.12,0.19l0,0
			c0.53,0.64,0.45,1.59-0.19,2.12l-5.74,4.8C215,155.27,214.05,155.19,213.52,154.55z"/>
	</g>
	<g class="st3">
		<path id="XMLID_110_" class="st5" d="M156.99,124.15c-4.28-10.4-10.13-19.79-17.15-27.53c-0.98-1.08-2.15-2.2-3.45-2.04
			c-1.17,0.14-2.09,1.27-2.9,2.33c-2.95,3.86-5.9,7.72-8.85,11.59C133.75,117.74,145.35,122.03,156.99,124.15z"/>
		<path id="XMLID_102_" class="st5" d="M154.99,122.28c4.28-10.4,10.13-19.79,17.15-27.53c0.98-1.08,2.15-2.2,3.45-2.04
			c1.17,0.14,2.09,1.27,2.9,2.33c2.95,3.86,5.9,7.72,8.85,11.59C178.23,115.87,166.63,120.16,154.99,122.28z"/>
		<g id="XMLID_62_">
			<path class="st9" d="M205.71,122.56c-0.73,8.41-1.28,17-1.8,25.65c-0.59,10.09-1.11,20.26-1.77,30.28
				c-0.28,4.37-0.61,8.72-0.97,13c-0.03,0.59-0.09,1.18-0.14,1.77c-9.72-0.38-19.51-0.49-29.34-0.52c-8.6-0.03-17.19,0-25.79-0.02
				c-11.58-0.02-23.14-0.1-34.57-0.54c-0.49-3.6-0.95-7.19-1.44-10.8c-0.52-4.02-1.06-8.04-1.59-12.06
				c-0.76-5.77-1.53-11.52-2.31-17.3c-1.09-8.21-2.18-16.43-3.28-24.63c13.62,0.9,27.1,0.9,40.55,0.35
				c8.68-0.33,17.33-0.92,26.01-1.63C181.37,125.11,193.49,123.84,205.71,122.56z"/>
			<path id="XMLID_101_" class="st17" d="M118.39,175.05c0,2.82-2.1,5.91-5.04,6.34c-1.07,0.16-2.08,0.21-3.07-0.02
				c-0.52-4.02-1.06-8.04-1.59-12.06c0.43-0.26,0.9-0.45,1.4-0.59C114.2,167.6,118.39,170.79,118.39,175.05z"/>
			<path id="XMLID_99_" class="st17" d="M131.65,152.03c-7.7,0-7.7,11.94,0,11.94C139.35,163.98,139.35,152.03,131.65,152.03z"/>
			<path id="XMLID_96_" class="st17" d="M136.27,178.3c-6.6,0-6.6,10.24,0,10.24C142.87,188.54,142.87,178.3,136.27,178.3z"/>
			<path id="XMLID_94_" class="st17" d="M185.38,152.55c-3.92,0-7.19,3.27-7.19,7.19c0,3.92,3.27,7.19,7.19,7.19
				c3.92,0,7.19-3.27,7.19-7.19C192.57,155.82,189.3,152.55,185.38,152.55z"/>
			<path id="XMLID_91_" class="st17" d="M171.95,176.68c-2.61-1.53-5.54-0.46-7.17,1.88c-1.22,1.75-0.9,3.91-0.06,5.72
				c1.21,2.59,4.88,3.22,7.17,1.88c1.17-0.69,2.05-1.82,2.41-3.13c0.02-0.07,0.02-0.14,0.03-0.21
				C175.1,180.58,173.95,177.86,171.95,176.68z"/>
			<path id="XMLID_64_" class="st17" d="M201.68,178.15c-0.28,4.37-0.61,8.72-0.97,13c-0.1,0.02-0.21,0.02-0.31,0.02
				c-3.59,0-6.57-2.98-6.57-6.57s2.98-6.59,6.57-6.59C200.83,178.01,201.27,178.06,201.68,178.15z"/>
			<path class="st4" d="M211.32,118.44c-0.21,9.81-0.95,19.06-3.57,29.58c-1.28,0.07-2.56,0.14-3.85,0.19
				c-11.59,0.57-22.77,1.01-33.83,1.39c-8.7,0.31-17.31,0.59-25.98,0.88c-12.46,0.43-25.03,0.88-38.11,1.54
				c-1.25,0.07-2.5,0.12-3.74,0.19c-1.78-8.46-1.78-18.49-3.57-26.95c14.8-0.9,29.6-1.79,44.42-2.69
				c8.67-0.54,17.35-1.06,26.03-1.58C183.18,120.13,197.25,119.28,211.32,118.44z"/>
			<path class="st17" d="M199.58,128.95c-0.08,3.7-0.36,7.2-1.35,11.17c-0.48,0.03-0.97,0.05-1.45,0.07
				c-4.38,0.22-8.59,0.38-12.77,0.52c-3.28,0.12-6.53,0.22-9.81,0.33c-4.7,0.16-9.45,0.33-14.38,0.58
				c-0.47,0.03-0.94,0.05-1.41,0.07c-0.67-3.19-0.67-6.98-1.35-10.17c5.59-0.34,11.17-0.67,16.76-1.01c3.27-0.2,6.55-0.4,9.82-0.6
				C188.95,129.59,194.27,129.27,199.58,128.95z"/>
		</g>
		<path class="st5" d="M171.69,192.73c-8.6-0.03-17.19,0-25.79-0.02c-0.66-14.09-1.25-28.14-1.8-42.23
			c-0.29-7.57-0.57-15.15-0.83-22.74c-0.07-1.72-0.12-3.45-0.17-5.16c8.67-0.54,17.35-1.06,26.03-1.58
			c0.03,1.72,0.09,3.41,0.16,5.11c0.24,7.85,0.5,15.68,0.8,23.48c0.31,8.91,0.66,17.8,0.99,26.69c0.14,3.36,0.26,6.74,0.4,10.1
			C171.53,188.5,171.6,190.62,171.69,192.73z"/>
	</g>
	<text transform="matrix(1 0 0 1 101.2392 221.5761)" class="st18 st13 st14">yay gifts</text>
</g>
<g>
	<path class="st19" d="M98.58,243.3c-17.02,0-30.86-13.84-30.86-30.86v-80.11c0-45.28,36.84-82.12,82.12-82.12
		c45.28,0,82.12,36.84,82.12,82.12v80.11c0,17.02-13.84,30.86-30.86,30.86H98.58z"/>
	<path class="st6" d="M98.58,237.95c-14.06,0-25.51-11.44-25.51-25.51v-80.11c0-42.33,34.43-76.76,76.76-76.76
		c42.33,0,76.76,34.43,76.76,76.76v80.11c0,14.06-11.44,25.51-25.51,25.51H98.58z"/>
	<path class="st19" d="M149.83,60.92L149.83,60.92c39.44,0,71.4,31.97,71.4,71.4v80.11c0,11.13-9.02,20.15-20.15,20.15H98.58
		c-11.13,0-20.15-9.02-20.15-20.15v-80.11C78.43,92.89,110.39,60.92,149.83,60.92z"/>
	<g>
		<path class="st4" d="M125.34,80.54L125.34,80.54c-0.49-0.67-0.35-1.61,0.31-2.1l6.01-4.45c0.67-0.49,1.61-0.35,2.1,0.31l0,0
			c0.49,0.67,0.35,1.61-0.31,2.1l-6.01,4.45C126.78,81.35,125.83,81.21,125.34,80.54z"/>
		<path class="st4" d="M196.76,108.47L196.76,108.47c-0.78,0.29-1.64-0.12-1.93-0.9l-2.57-7.02c-0.29-0.78,0.12-1.64,0.9-1.93l0,0
			c0.78-0.29,1.64,0.12,1.93,0.9l2.57,7.02C197.94,107.32,197.54,108.18,196.76,108.47z"/>
		<path class="st16" d="M106.35,91.78L106.35,91.78c0.45-0.7,1.37-0.91,2.08-0.46l6.31,4.01c0.7,0.45,0.91,1.37,0.46,2.08l0,0
			c-0.45,0.7-1.37,0.91-2.08,0.46l-6.31-4.01C106.11,93.41,105.9,92.48,106.35,91.78z"/>
		<path class="st16" d="M95.25,120.47L95.25,120.47c-0.46-0.69-0.27-1.63,0.43-2.08l6.24-4.12c0.69-0.46,1.63-0.27,2.08,0.43l0,0
			c0.46,0.69,0.27,1.63-0.43,2.08l-6.24,4.12C96.64,121.36,95.71,121.17,95.25,120.47z"/>
		<path class="st16" d="M209.3,140.92L209.3,140.92c-0.7,0.45-1.63,0.25-2.08-0.44l-4.07-6.27c-0.45-0.7-0.25-1.63,0.44-2.08l0,0
			c0.7-0.45,1.63-0.25,2.08,0.44l4.07,6.27C210.19,139.53,209.99,140.46,209.3,140.92z"/>
		<path class="st6" d="M129.45,100.2L129.45,100.2c0.72-0.41,1.64-0.15,2.05,0.58l3.66,6.52c0.41,0.72,0.15,1.64-0.58,2.05l0,0
			c-0.72,0.41-1.64,0.15-2.05-0.58l-3.66-6.52C128.46,101.52,128.72,100.6,129.45,100.2z"/>
		<path class="st6" d="M90.87,139.84L90.87,139.84c0.72-0.41,1.64-0.15,2.05,0.58l3.66,6.52c0.41,0.72,0.15,1.64-0.58,2.05l0,0
			c-0.72,0.41-1.64,0.15-2.05-0.58l-3.66-6.52C89.89,141.16,90.15,140.25,90.87,139.84z"/>
		<path class="st16" d="M163.59,75.55L163.59,75.55c0.42-0.72,1.34-0.97,2.05-0.55l6.48,3.74c0.72,0.42,0.97,1.34,0.55,2.05l0,0
			c-0.42,0.72-1.34,0.97-2.05,0.55l-6.48-3.74C163.42,77.19,163.18,76.27,163.59,75.55z"/>
		<path class="st4" d="M89.25,175.5L89.25,175.5c0.42-0.72,1.34-0.97,2.06-0.55l6.48,3.74c0.72,0.42,0.97,1.34,0.55,2.05l0,0
			c-0.42,0.72-1.34,0.97-2.05,0.55l-6.48-3.74C89.08,177.14,88.84,176.22,89.25,175.5z"/>
		<path class="st16" d="M202.74,177.02L202.74,177.02c0.42-0.72,1.34-0.97,2.05-0.55l6.48,3.74c0.72,0.42,0.97,1.34,0.55,2.05l0,0
			c-0.42,0.72-1.34,0.97-2.05,0.55l-6.48-3.74C202.57,178.66,202.32,177.74,202.74,177.02z"/>
		<path class="st4" d="M203.25,166.16L203.25,166.16c-0.53-0.64-0.45-1.59,0.19-2.12l5.74-4.8c0.64-0.53,1.59-0.45,2.12,0.19l0,0
			c0.53,0.64,0.45,1.59-0.19,2.12l-5.74,4.8C204.74,166.88,203.79,166.8,203.25,166.16z"/>
	</g>
	<g>
		<g id="XMLID_33_">
			<path id="XMLID_146_" class="st17" d="M192.66,184.36c-25.03,7.26-51.78,10.75-76.39,2.15c-0.63-5.53-0.87-1.81-1.58-7.31
				c-1.18-9.21-2.44-18.37-3.65-27.56c-0.92-6.96-1.81-13.92-2.6-20.92c26.24-1.36,56.43-0.77,82.67-2.13
				c0.34,5.72,0.61,11.48,0.85,17.25c0.4,9.09,0.74,18.23,1.15,27.38C193.46,181.44,192.07,176.14,192.66,184.36z"/>
			<path id="XMLID_145_" class="st9" d="M167.56,108.04c-1.14,0.31-2.26,0.73-3.36,1.14c-5.04,1.91-10.09,3.81-15.13,5.72
				c-3.86,1.46-33.07,11.96-40.64,15.82c24.83,0.22,48.63,3.7,73.45,2.91c2.87-0.09,6.08-0.34,7.97-2.5
				c2.32-2.65,1.44-6.78-0.1-9.94c-1.69-3.46-4.71-7.33-8.07-9.28c-3.05-1.77-6.96-4.22-10.58-4.34
				C169.9,107.53,168.72,107.72,167.56,108.04z"/>
			<path id="XMLID_143_" class="st5" d="M193.1,173.21c-3.86,0.79-7.71,1.42-11.39,2.01c-11.07,1.81-22.24,3.21-33.44,3.87
				c-10.59,0.62-21.23,0.77-31.82,0.2c-0.58-0.03-1.16-0.06-1.76-0.09c-0.37-2.9-0.75-5.8-1.14-8.68c-0.33-2.5-0.66-4.99-1-7.48
				c-0.51-3.79-1.02-7.59-1.52-11.4c2.43,0.21,4.83,0.43,7.17,0.53c10.02,0.45,20.05,0.47,30.06-0.12
				c9.49-0.56,18.83-1.46,28.05-3.04c5.11-0.87,10.36-2.14,15.64-3.18c0.13,3,0.26,6.01,0.38,9.02c0.1,2.66,0.21,5.31,0.33,7.98
				C192.8,166.29,192.94,169.74,193.1,173.21z"/>
			<path id="XMLID_142_" class="st4" d="M192.66,162.83c-6.01,1.56-12.32,2.52-18.18,3.53c-9.49,1.65-19.05,2.92-28.66,3.61
				c-9.86,0.7-19.76,0.98-29.65,0.62c-0.86-0.03-1.73-0.06-2.62-0.07c-0.33-2.5-0.66-4.99-1-7.48c1.82,0.16,3.62,0.29,5.36,0.33
				c9.31,0.22,18.63,0.07,27.91-0.64c9.54-0.74,19.05-1.87,28.46-3.62c6.03-1.12,12.03-2.88,18.06-4.24
				C192.44,157.51,192.55,160.16,192.66,162.83z"/>
			<path id="XMLID_1_" class="st9" d="M191.27,126.85c0.61,2.71,0.02,6.52-0.79,9.17c-0.81,2.65-2.66,5.07-5.21,6.14
				c-2.56,1.07-6.08,0.8-7.92-1.28c-0.68,2.12-2.96,3.61-5.18,3.39c-2.22-0.23-4.16-2.37-4.4-4.59c-1.62,2.31-3.78,4.44-6.52,5.11
				c-2.74,0.67-5.85-0.82-6.72-3.5c-1.33,2.74-4.43,4.5-7.46,4.25c-3.03-0.25-6.39-2.36-7.25-5.28c-0.73,3.81-4.49,6.79-8.37,6.64
				c-3.87-0.16-7.97-4.12-8.39-7.97c-0.63,2.47-3.41,3.98-5.94,3.7c-2.53-0.28-4.72-2.01-6.15-4.11c-1.44-2.1-2.14-4.45-2.52-7.79"
				/>
			<path id="XMLID_140_" class="st17" d="M183.2,119.11c-4.31-11.06-19.28-7.6-27.56-4.67c-2.6,0.92-22.87,7.61-21.62,10.8
				c0.77,1.96,5.94-0.56,7.18-0.87c2.61-0.66,5.19-1.33,7.74-2.19c5.17-1.75,10.29-3.79,15.7-4.52c5.41-0.72,11.27,0.02,15.57,3.37
				c0.74,0.58,1.68,1.26,2.53,0.85C183.67,121.42,183.58,120.07,183.2,119.11z"/>
			<g id="XMLID_135_">
				<path id="XMLID_139_" class="st6" d="M154.8,123.67c-0.38-0.04-0.7,0.01-0.97,0.31c-0.32,0.36-0.32,0.83,0,1.19
					c0.27,0.3,0.59,0.36,0.97,0.31C155.96,125.34,155.96,123.81,154.8,123.67z"/>
				<path id="XMLID_138_" class="st20" d="M152.46,88.98c-0.02-0.45-0.67-0.45-0.7,0c-0.06,1.14-0.14,2.32-0.06,3.47
					c0.04,0.53,0.79,0.53,0.82,0C152.59,91.3,152.52,90.12,152.46,88.98z"/>
				<path id="XMLID_137_" class="st4" d="M156.42,128.67h-6.06c-0.1-1.1-0.18-2.2-0.26-3.3c-0.05-0.61-0.1-1.22-0.13-1.83
					c-0.13-1.75-0.24-3.51-0.33-5.26c-0.05-0.74-0.09-1.47-0.12-2.2c-0.11-2.09-0.2-4.19-0.27-6.29c-0.02-0.73-0.04-1.45-0.06-2.18
					c-0.06-2.04-0.1-4.08-0.12-6.12c-0.01-0.87-0.01-1.74-0.01-2.61c-0.01-2.31,0-4.62,0.04-6.94c1.85,0,3.76-0.35,5.62-0.35
					c0.07,1.31,0.13,2.62,0.19,3.93c0.04,0.79,0.08,1.6,0.12,2.39c0.1,1.97,0.19,3.93,0.27,5.89c0.04,0.85,0.07,1.69,0.11,2.53
					c0.09,1.98,0.18,3.96,0.27,5.93c0.03,0.75,0.07,1.5,0.1,2.25c0.09,2.02,0.19,4.04,0.27,6.05c0.03,0.68,0.06,1.34,0.1,2.01
					C156.22,124.6,156.32,126.64,156.42,128.67z"/>
				<path id="XMLID_136_" class="st6" d="M152.06,80.73c-0.96,1.02-1.93,2.05-2.57,3.29c-0.64,1.24-0.93,2.73-0.46,4.04
					c0.47,1.31,1.84,2.34,3.22,2.14c1.25-0.19,2.22-1.33,2.47-2.57s-0.09-2.54-0.65-3.67C153.51,82.81,152.74,81.8,152.06,80.73z"/>
			</g>
		</g>
		<path class="st17" d="M185,128.45c-11.43,5.26-23.77,8.13-36.35,8.54c-12.54,0.41-24.03-2.19-36.1-5.15
			c-0.83-0.2-1.45,1.04-0.61,1.44c11.26,5.37,25.05,6.85,37.39,6.4c12.84-0.47,25.44-3.48,37.23-8.56
			C188.37,130.34,186.82,127.61,185,128.45z"/>
	</g>
	<text transform="matrix(1 0 0 1 95.0139 218.1839)" class="st21 st13 st14">yay cake</text>
</g>
<g class="st0">
	<path class="st1" d="M92.46,236.66c-15.39,0-27.91-13.05-27.91-29.1V81.11c0-16.04,12.52-29.1,27.91-29.1h108.41
		c15.39,0,27.91,13.05,27.91,29.1v126.45c0,16.04-12.52,29.1-27.91,29.1H92.46z"/>
	<path class="st2" d="M92.46,231.3c-12.44,0-22.56-10.65-22.56-23.74V81.11c0-13.09,10.12-23.74,22.56-23.74h108.41
		c12.44,0,22.56,10.65,22.56,23.74v126.45c0,13.09-10.12,23.74-22.56,23.74H92.46z"/>
	<path class="st1" d="M75.26,81.11v126.45c0,10.15,7.7,18.38,17.2,18.38h108.41c9.5,0,17.2-8.23,17.2-18.38V81.11
		c0-10.15-7.7-18.38-17.2-18.38H92.46C82.96,62.72,75.26,70.95,75.26,81.11z"/>
	<g class="st3">
		<path class="st4" d="M125.47,80.36L125.47,80.36c-0.49-0.67-0.35-1.61,0.31-2.1l6.01-4.45c0.67-0.49,1.61-0.35,2.1,0.31l0,0
			c0.49,0.67,0.35,1.61-0.31,2.1l-6.01,4.45C126.9,81.17,125.96,81.03,125.47,80.36z"/>
		<path class="st4" d="M187.26,154.9L187.26,154.9c-0.78,0.29-1.64-0.12-1.93-0.9l-2.57-7.02c-0.29-0.78,0.12-1.64,0.9-1.93l0,0
			c0.78-0.29,1.64,0.12,1.93,0.9l2.57,7.02C188.44,153.75,188.04,154.62,187.26,154.9z"/>
		<path class="st5" d="M85.14,93.9L85.14,93.9c0.45-0.7,1.37-0.91,2.08-0.46l6.31,4.01c0.7,0.45,0.91,1.37,0.46,2.08l0,0
			c-0.45,0.7-1.37,0.91-2.08,0.46l-6.31-4.01C84.91,95.53,84.7,94.6,85.14,93.9z"/>
		<path class="st5" d="M83.76,135.3L83.76,135.3c-0.46-0.69-0.27-1.63,0.43-2.08l6.24-4.12c0.69-0.46,1.63-0.27,2.08,0.43l0,0
			c0.46,0.69,0.27,1.63-0.43,2.08l-6.24,4.12C85.15,136.19,84.22,136,83.76,135.3z"/>
		<path class="st5" d="M204.72,165.94L204.72,165.94c-0.7,0.45-1.63,0.25-2.08-0.44l-4.07-6.27c-0.45-0.7-0.25-1.63,0.44-2.08l0,0
			c0.7-0.45,1.63-0.25,2.08,0.44l4.07,6.27C205.62,164.55,205.42,165.49,204.72,165.94z"/>
		<path class="st6" d="M130.39,94.11L130.39,94.11c0.72-0.41,1.64-0.15,2.05,0.58l3.66,6.52c0.41,0.72,0.15,1.64-0.58,2.05l0,0
			c-0.72,0.41-1.64,0.15-2.05-0.58l-3.66-6.52C129.41,95.44,129.66,94.52,130.39,94.11z"/>
		<path class="st6" d="M87.01,185.73L87.01,185.73c0.72-0.41,1.64-0.15,2.05,0.58l3.66,6.52c0.41,0.72,0.15,1.64-0.58,2.05l0,0
			c-0.72,0.41-1.64,0.15-2.05-0.58l-3.66-6.52C86.02,187.05,86.28,186.14,87.01,185.73z"/>
		<path class="st6" d="M196.62,174.86L196.62,174.86c0.8,0.23,1.26,1.06,1.03,1.86l-2.06,7.19c-0.23,0.8-1.06,1.26-1.86,1.03l0,0
			c-0.8-0.23-1.26-1.06-1.03-1.86l2.06-7.19C194.99,175.09,195.82,174.63,196.62,174.86z"/>
		<path class="st5" d="M146.62,105.61L146.62,105.61c0.42-0.72,1.34-0.97,2.05-0.55l6.48,3.74c0.72,0.42,0.97,1.34,0.55,2.05l0,0
			c-0.42,0.72-1.34,0.97-2.05,0.55l-6.48-3.74C146.45,107.25,146.2,106.33,146.62,105.61z"/>
		<path class="st4" d="M87.96,209.42L87.96,209.42c0.42-0.72,1.34-0.97,2.05-0.55l6.48,3.74c0.72,0.42,0.97,1.34,0.55,2.05l0,0
			c-0.42,0.72-1.34,0.97-2.06,0.55l-6.48-3.74C87.79,211.06,87.54,210.14,87.96,209.42z"/>
		<path class="st5" d="M180.92,209.09L180.92,209.09c0.42-0.72,1.34-0.97,2.05-0.55l6.48,3.74c0.72,0.42,0.97,1.34,0.55,2.05l0,0
			c-0.42,0.72-1.34,0.97-2.05,0.55l-6.48-3.74C180.75,210.73,180.5,209.81,180.92,209.09z"/>
		<path class="st4" d="M195.87,197.84L195.87,197.84c-0.53-0.64-0.45-1.59,0.19-2.12l5.74-4.8c0.64-0.53,1.59-0.45,2.12,0.19l0,0
			c0.53,0.64,0.45,1.59-0.19,2.12l-5.74,4.8C197.36,198.57,196.41,198.48,195.87,197.84z"/>
	</g>
	<text transform="matrix(1 0 0 1 159.8127 89.8605)" class="st3"><tspan x="0" y="0" class="st12 st13 st14">you</tspan><tspan x="3.13" y="20.53" class="st12 st13 st14">are</tspan><tspan x="3.15" y="41.06" class="st12 st13 st14">old</tspan></text>
	<g class="st3">
		<g>
			<g id="XMLID_61_">
				<g>
					<path class="st7" d="M108.22,177.65c-6.68-0.02-13.37-0.01-20.05,0.05c-2.9,0.03-5.37-3.45-5.68-6.91
						c-0.31-3.46,1.37-6.95,4.01-9.2c2.64-2.25,6.15-3.35,9.63-3.44c-3.02-3.74-2.98-9.38-0.11-13.12c2.86-3.73,8.3-5.25,12.68-3.53
						c0.83-10.93,9.28-20.27,19.59-22.23c10.31-1.97,21.6,3.61,26.31,12.99c2.41-0.76,5.72,0.1,7.9,2.21
						c2.17,2.12,3.12,5.41,2.43,8.36c4.34,1.02,8.12,4.56,9.64,8.96c1.53,4.4,0.74,9.53-2.03,13.26c3.14,0.77,5.94,2.8,7.66,5.53
						c1.72,2.74,2.33,6.15,1.66,9.31c-6.22-0.36-12.44-0.69-18.68-0.96c-4-0.18-8.02-0.33-12.03-0.47
						c-4.87-0.17-9.75-0.31-14.64-0.42c-5.02-0.13-10.04-0.22-15.06-0.28C117.05,177.71,112.64,177.68,108.22,177.65z"/>
					<path class="st9" d="M163.18,213.94c0.01,0.75-0.1,1.5-0.33,2.21c-0.44,1.39-1.3,2.67-1.46,4.12
						c-0.22,2.01,0.93,3.89,2.04,5.58c-5.29,0.04-10.56,0.07-15.82,0.09l0-0.13c-0.94-4.06,3.45-7.92,2.59-12
						c-0.61-2.93-3.78-4.89-4.15-7.86c-0.27-2.24,1.12-4.29,2.42-6.14c1.29-1.85,2.6-4,2.12-6.2c-0.37-1.75-1.79-3.06-2.62-4.64
						c-1.83-3.46-0.31-8.6,3.19-10.38l0-0.11c4.01,0.14,8.02,0.29,12.03,0.47l0,0.1c-0.42,1.98-1.75,3.63-2.82,5.36
						c-1.08,1.72-1.96,3.79-1.39,5.74c0.71,2.45,3.55,4.1,3.55,6.66c-0.01,2.16-2.06,3.72-2.93,5.7c-0.89,2.03-0.33,4.55,1.21,6.12
						C162.22,210.05,163.17,211.92,163.18,213.94z"/>
					<path class="st4" d="M151.16,178.47l0,0.11c-3.49,1.78-5.01,6.92-3.19,10.38c0.83,1.58,2.25,2.89,2.62,4.64
						c0.47,2.2-0.83,4.35-2.12,6.2c-1.3,1.85-2.69,3.9-2.42,6.14c0.37,2.97,3.53,4.93,4.15,7.86c0.86,4.07-3.53,7.93-2.59,12l0,0.13
						c-4.41,0.01-8.82,0.01-13.22,0.01l0-0.04c-1.11-3.81,2.86-7.58,2.16-11.49c-0.46-2.57-2.84-4.44-3.44-6.97
						c-0.63-2.62,0.76-5.26,2.15-7.58c1.38-2.31,2.86-4.86,2.44-7.52c-0.39-2.43-2.29-4.35-3.05-6.69c-0.84-2.6-0.08-5.65,1.88-7.55
						l0-0.05C141.4,178.16,146.29,178.3,151.16,178.47z"/>
					<path class="st4" d="M137.69,192.34c0.42,2.66-1.06,5.21-2.44,7.52c-1.39,2.32-2.77,4.95-2.15,7.58
						c0.6,2.53,2.98,4.4,3.44,6.97c0.7,3.91-3.27,7.68-2.16,11.49l0,0.04c-4.5,0-8.99-0.01-13.48-0.01l0-0.05
						c-0.79-2.55,0.25-5.28,1.31-7.73c1.05-2.46,2.15-5.14,1.47-7.73c-0.69-2.66-3.17-4.74-3.26-7.48
						c-0.06-2.09,1.31-3.91,2.44-5.68c1.13-1.77,2.09-4,1.2-5.9c-0.79-1.67-2.71-2.43-4.01-3.74c-1.3-1.31-1.93-3.24-1.69-5.06
						c0.25-1.83,1.5-3.82,3.09-4.73l0-0.05c5.02,0.06,10.04,0.15,15.06,0.28l0,0.05c-1.96,1.91-2.71,4.95-1.88,7.55
						C135.39,188,137.3,189.91,137.69,192.34z"/>
					<path class="st5" d="M124.07,191.36c0.89,1.9-0.07,4.13-1.2,5.9c-1.14,1.77-2.5,3.59-2.44,5.68c0.08,2.75,2.56,4.83,3.26,7.48
						c0.68,2.59-0.42,5.27-1.47,7.73c-1.05,2.45-2.1,5.18-1.31,7.73l0,0.05c-4.38-0.01-8.76-0.02-13.13-0.03
						c-1.94-2.2-0.73-5.66,0.83-8.27c1.56-2.6,3.5-5.4,2.95-8.38c-0.57-3.14-3.81-5.53-3.66-8.72c0.17-3.39,4.19-6.04,3.41-9.34
						c-0.58-2.45-3.44-3.52-4.91-5.55c-1.81-2.51-0.89-6.51,1.82-7.98c4.41,0.02,8.83,0.06,13.24,0.12l0,0.05
						c-1.6,0.92-2.84,2.9-3.09,4.73c-0.25,1.82,0.39,3.75,1.69,5.06C121.36,188.93,123.28,189.69,124.07,191.36z"/>
				</g>
				<g>
					<path class="st10" d="M163.19,178.94c6.24,0.27,12.46,0.59,18.68,0.96c0.67-3.17,0.06-6.58-1.66-9.31
						c-1.72-2.73-4.53-4.76-7.66-5.53c2.77-3.74,3.56-8.87,2.03-13.26c-1.52-4.4-5.31-7.94-9.64-8.96c0.7-2.95-0.26-6.24-2.43-8.36
						c-2.18-2.11-5.49-2.98-7.9-2.21c-4.7-9.39-15.99-14.96-26.31-12.99c-10.32,1.97-18.76,11.3-19.59,22.23
						c-4.38-1.72-9.82-0.21-12.68,3.53c-2.86,3.74-2.91,9.38,0.11,13.12c-3.48,0.09-6.99,1.19-9.63,3.44
						c-2.65,2.25-4.32,5.74-4.01,9.2c0.31,3.46,2.78,6.94,5.68,6.91c6.69-0.06,13.37-0.07,20.05-0.05
						c4.41,0.02,8.83,0.06,13.24,0.12c5.02,0.06,10.04,0.15,15.06,0.28c4.88,0.11,9.76,0.25,14.64,0.42
						C155.17,178.61,159.18,178.76,163.19,178.94z"/>
					<path class="st10" d="M108.23,177.65c-0.01,0-0.01,0.01-0.01,0.01c-2.71,1.47-3.63,5.48-1.82,7.98
						c1.47,2.04,4.33,3.11,4.91,5.55c0.78,3.3-3.25,5.95-3.41,9.34c-0.16,3.19,3.08,5.57,3.66,8.72c0.55,2.98-1.38,5.78-2.95,8.38
						c-1.56,2.6-2.77,6.07-0.83,8.27c4.38,0.01,8.75,0.02,13.13,0.03c4.49,0,8.98,0.01,13.48,0.01c4.4,0,8.81,0,13.22-0.01
						c5.26-0.02,10.53-0.04,15.82-0.09c-1.1-1.69-2.26-3.57-2.04-5.58c0.16-1.45,1.02-2.72,1.46-4.12c0.23-0.71,0.34-1.46,0.33-2.21
						c-0.01-2.02-0.96-3.89-2.37-5.32c-1.54-1.57-2.1-4.1-1.21-6.12c0.87-1.98,2.92-3.54,2.93-5.7c0-2.56-2.84-4.2-3.55-6.66
						c-0.57-1.95,0.31-4.02,1.39-5.74c1.08-1.72,2.4-3.38,2.82-5.36"/>
					<path class="st10" d="M121.46,177.82c-1.6,0.92-2.84,2.9-3.09,4.73c-0.25,1.82,0.39,3.75,1.69,5.06
						c1.3,1.32,3.22,2.07,4.01,3.74c0.89,1.9-0.07,4.13-1.2,5.9c-1.14,1.77-2.5,3.59-2.44,5.68c0.08,2.75,2.56,4.83,3.26,7.48
						c0.68,2.59-0.42,5.27-1.47,7.73c-1.05,2.45-2.1,5.18-1.31,7.73"/>
					<path class="st10" d="M136.52,178.1c-1.96,1.91-2.71,4.95-1.88,7.55c0.75,2.34,2.66,4.26,3.05,6.69
						c0.42,2.66-1.06,5.21-2.44,7.52c-1.39,2.32-2.77,4.95-2.15,7.58c0.6,2.53,2.98,4.4,3.44,6.97c0.7,3.91-3.27,7.68-2.16,11.49"/>
					<path class="st10" d="M151.16,178.58c-3.49,1.78-5.01,6.92-3.19,10.38c0.83,1.58,2.25,2.89,2.62,4.64
						c0.47,2.2-0.83,4.35-2.12,6.2c-1.3,1.85-2.69,3.9-2.42,6.14c0.37,2.97,3.53,4.93,4.15,7.86c0.86,4.07-3.53,7.93-2.59,12"/>
					<g>
						<path class="st10" d="M116.67,155.58c-2.27,0.43-4.25,2.16-4.98,4.36"/>
						<path class="st10" d="M150.5,155.21c2.01,0.2,3.89,1.41,4.91,3.16"/>
						<g>
							<g>
								<path class="st9" d="M115.81,149.28c-0.02,0.91-1.5,1.62-3.32,1.58c-1.82-0.03-3.27-0.79-3.26-1.7
									c0.02-0.91,1.5-1.62,3.32-1.58C114.37,147.61,115.83,148.38,115.81,149.28z"/>
								<path class="st9" d="M158.06,150.04c-0.02,0.91-1.5,1.62-3.32,1.58c-1.82-0.03-3.27-0.79-3.26-1.7
									c0.02-0.91,1.5-1.62,3.32-1.58C156.62,148.37,158.07,149.13,158.06,150.04z"/>
							</g>
							<g>
								<path class="st11" d="M130.3,147.48c-0.09,5.07-2.45,9.14-5.27,9.09c-2.82-0.05-5.04-4.2-4.94-9.27
									c0.09-5.07,2.45-9.14,5.27-9.09C128.18,138.26,130.39,142.41,130.3,147.48z"/>
								<path class="st8" d="M126.68,140.83c-1.63-0.03-3.04,1.77-3.6,4.31l2.49,1.7c0.57,0.39,0.53,1.23-0.07,1.57l-2.45,1.38
									c0.51,2.44,1.82,4.18,3.4,4.21c2.07,0.04,3.8-2.88,3.86-6.52C130.37,143.85,128.74,140.87,126.68,140.83z"/>
							</g>
							<g>
								<path class="st11" d="M147.03,147.78c-0.09,5.07-2.45,9.14-5.27,9.09c-2.82-0.05-5.04-4.2-4.94-9.27
									c0.09-5.07,2.45-9.14,5.27-9.09C144.91,138.56,147.12,142.71,147.03,147.78z"/>
								<path class="st8" d="M143.41,141.13c-1.63-0.03-3.04,1.77-3.6,4.31l2.49,1.7c0.57,0.39,0.53,1.23-0.07,1.57l-2.45,1.37
									c0.51,2.44,1.82,4.18,3.4,4.21c2.07,0.04,3.8-2.88,3.86-6.52C147.1,144.14,145.47,141.17,143.41,141.13z"/>
							</g>
						</g>
						<path class="st10" d="M113.59,157.53c4.76,5.96,12.42,9.49,20.04,9.25s15.04-4.25,19.42-10.5"/>
						<path class="st10" d="M117.03,137.42c1.25-2.91,3.77-5.24,6.77-6.25"/>
						<path class="st10" d="M141.9,131.44c3.26,0.22,6.37,2,8.22,4.69"/>
						<path class="st10" d="M127.78,169.88c3.2,1.55,7.07,1.64,10.34,0.25"/>
					</g>
				</g>
			</g>
		</g>
		<g id="XMLID_5_">
			<path id="XMLID_144_" class="st9" d="M145.2,119.87c-2.8,4.04-7.66,8.01-13.28,11.08c-4.48,2.45-9.41,4.32-14.16,5.19l-0.01,0
				c-3.5,0.65-6.9,0.76-9.92,0.15c-0.54-3.9-0.98-8.01-1.35-12.2c-0.15-1.64-0.28-3.3-0.41-4.96c-0.41-5.38-0.73-10.8-1.02-16.02
				c-0.13-2.41-0.25-4.79-0.39-7.09c-0.2-3.77-0.4-7.35-0.62-10.63c1.83,1.61,3.74,3.25,5.71,4.92c1.5,1.28,3.04,2.57,4.61,3.86
				c3.58,2.98,7.28,6.02,10.97,9.05c1.45,1.18,2.89,2.37,4.33,3.55c2.79,2.3,5.55,4.58,8.22,6.83c1.46,1.22,2.88,2.44,4.27,3.64
				C143.2,118.13,144.21,119,145.2,119.87z"/>
			<path id="XMLID_132_" class="st4" d="M114.38,94.17c-1.5,1.82-3.04,3.42-4.25,4.58c-1.55,1.5-3.25,2.99-5.06,4.35
				c-0.13-2.41-0.25-4.79-0.39-7.09c0.73-0.66,1.44-1.37,2.12-2.12c1.04-1.15,2.04-2.35,2.96-3.59
				C111.28,91.58,112.81,92.87,114.38,94.17z"/>
			<path id="XMLID_129_" class="st4" d="M129.68,106.77c-0.28,0.29-0.56,0.57-0.81,0.85c-2.83,3.06-5.84,5.94-9.17,8.46
				c-4.2,3.2-8.53,5.86-13.21,8c-0.15-1.64-0.28-3.3-0.41-4.96c4.17-2.47,8.16-5.28,11.74-8.43c2.65-2.33,5.21-4.8,7.53-7.48
				C126.8,104.41,128.24,105.59,129.68,106.77z"/>
			<path id="XMLID_103_" class="st4" d="M142.17,117.24c-0.1,0.18-0.21,0.34-0.31,0.51c-2.21,3.71-4.63,7.34-7.49,10.58
				c-0.79,0.89-1.61,1.77-2.45,2.62c-4.48,2.45-9.41,4.32-14.16,5.19c4.87-3.82,9.69-7.71,13.58-12.57
				c2.48-3.12,4.63-6.47,6.55-9.97C139.35,114.82,140.78,116.04,142.17,117.24z"/>
			<path id="XMLID_19_" class="st5" d="M97,84.98c1.44,0.42,2.98,1.14,4.42,1.56c0.49,1.18,1.21,2.9,1.7,4.09
				c0.62-1.29,1.28-3.02,1.9-4.31c1.27,0.32,2.81,0.45,4.08,0.77c-0.75-1.15-1.69-2.38-2.44-3.52c0.59-1.13,1.2-2.76,1.8-3.89
				c-1.24,0.04-2.49,0.94-3.51,1.63c-1.21-1.36-2.43-2.71-3.65-4.07c0.07,1.86-0.35,4.17-0.28,6.02C99.81,83.92,98.2,84.32,97,84.98
				z"/>
		</g>
	</g>
</g>
</svg>
