<?xml version="1.0" encoding="utf-8"?>
<!-- Generator: Adobe Illustrator 25.0.0, SVG Export Plug-In . SVG Version: 6.00 Build 0)  -->
<svg version="1.1" id="OBJECTS" xmlns="http://www.w3.org/2000/svg" xmlns:xlink="http://www.w3.org/1999/xlink" x="0px" y="0px"
	 viewBox="0 0 299.66 299.66" style="enable-background:new 0 0 299.66 299.66;" xml:space="preserve">
<style type="text/css">
	.st0{display:none;}
	.st1{display:inline;fill:#76B1D6;stroke:#040203;stroke-width:0.5;stroke-miterlimit:10;}
	
		.st2{display:inline;fill:#FFFFFF;stroke:#040203;stroke-width:0.5;stroke-linecap:round;stroke-linejoin:round;stroke-miterlimit:10;}
	.st3{display:inline;}
	.st4{fill:#FFA92E;stroke:#040203;stroke-width:0.5;stroke-miterlimit:10;}
	.st5{fill:#61DBAC;stroke:#040203;stroke-width:0.5;stroke-miterlimit:10;}
	.st6{fill:#FFFFFF;stroke:#040203;stroke-width:0.5;stroke-linecap:round;stroke-linejoin:round;stroke-miterlimit:10;}
	.st7{fill:#FEF7F2;}
	.st8{fill:#222221;}
	.st9{fill:#FF7259;stroke:#040203;stroke-width:0.5;stroke-miterlimit:10;}
	.st10{fill:none;stroke:#222221;stroke-width:0.5;stroke-linecap:round;stroke-linejoin:round;stroke-miterlimit:10;}
	.st11{fill:#FEF7F2;stroke:#222221;stroke-width:0.5;stroke-linecap:round;stroke-linejoin:round;stroke-miterlimit:10;}
	.st12{fill:#FFFFFF;}
	.st13{font-family:'Montserrat-Black';}
	.st14{font-size:24.1018px;}
	.st15{display:inline;fill:#FFB8F5;stroke:#040203;stroke-width:0.5;stroke-miterlimit:10;}
	.st16{fill:#80D0F5;stroke:#040203;stroke-width:0.5;stroke-linecap:round;stroke-linejoin:round;stroke-miterlimit:10;}
	.st17{fill:#76B1D6;stroke:#040203;stroke-width:0.5;stroke-miterlimit:10;}
	.st18{fill:#5D1D71;}
	.st19{display:inline;fill:#383838;}
</style>
<g class="st0">
	<path class="st1" d="M-101.55,447.99c-15.39,0-27.91-13.05-27.91-29.1V292.44c0-16.04,12.52-29.1,27.91-29.1H6.86
		c15.39,0,27.91,13.05,27.91,29.1v126.45c0,16.04-12.52,29.1-27.91,29.1H-101.55z"/>
	<path class="st2" d="M-101.55,442.63c-12.44,0-22.56-10.65-22.56-23.74V292.44c0-13.09,10.12-23.74,22.56-23.74H6.86
		c12.44,0,22.56,10.65,22.56,23.74v126.45c0,13.09-10.12,23.74-22.56,23.74H-101.55z"/>
	<path class="st1" d="M-118.75,292.44v126.45c0,10.15,7.7,18.38,17.2,18.38H6.86c9.5,0,17.2-8.23,17.2-18.38V292.44
		c0-10.15-7.7-18.38-17.2-18.38h-108.41C-111.05,274.05-118.75,282.29-118.75,292.44z"/>
	<g class="st3">
		<path class="st4" d="M-70.93,290.47L-70.93,290.47c-0.49-0.67-0.35-1.61,0.31-2.1l6.01-4.45c0.67-0.49,1.61-0.35,2.1,0.31l0,0
			c0.49,0.67,0.35,1.61-0.31,2.1l-6.01,4.45C-69.49,291.27-70.43,291.14-70.93,290.47z"/>
		<path class="st4" d="M-9.14,365.01L-9.14,365.01c-0.78,0.29-1.64-0.12-1.93-0.9l-2.57-7.02c-0.29-0.78,0.12-1.64,0.9-1.93l0,0
			c0.78-0.29,1.64,0.12,1.93,0.9l2.57,7.02C-7.96,363.86-8.36,364.73-9.14,365.01z"/>
		<path class="st5" d="M-111.25,304.01L-111.25,304.01c0.45-0.7,1.37-0.91,2.08-0.46l6.31,4.01c0.7,0.45,0.91,1.37,0.46,2.08l0,0
			c-0.45,0.7-1.37,0.91-2.08,0.46l-6.31-4.01C-111.49,305.64-111.7,304.71-111.25,304.01z"/>
		<path class="st5" d="M-112.64,345.41L-112.64,345.41c-0.46-0.69-0.27-1.63,0.43-2.08l6.24-4.12c0.69-0.46,1.63-0.27,2.08,0.43l0,0
			c0.46,0.69,0.27,1.63-0.43,2.08l-6.24,4.12C-111.25,346.3-112.18,346.1-112.64,345.41z"/>
		<path class="st5" d="M8.32,376.05L8.32,376.05c-0.7,0.45-1.63,0.25-2.08-0.44l-4.07-6.27c-0.45-0.7-0.25-1.63,0.44-2.08l0,0
			c0.7-0.45,1.63-0.25,2.08,0.44l4.07,6.27C9.22,374.66,9.02,375.59,8.32,376.05z"/>
		<path class="st6" d="M-66.01,304.22L-66.01,304.22c0.72-0.41,1.64-0.15,2.05,0.58l3.66,6.52c0.41,0.72,0.15,1.64-0.58,2.05l0,0
			c-0.72,0.41-1.64,0.15-2.05-0.58l-3.66-6.52C-66.99,305.54-66.73,304.63-66.01,304.22z"/>
		<path class="st6" d="M-112.72,365.72L-112.72,365.72c0.72-0.41,1.64-0.15,2.05,0.58l3.66,6.52c0.41,0.72,0.15,1.64-0.58,2.05l0,0
			c-0.72,0.41-1.64,0.15-2.05-0.58l-3.66-6.52C-113.71,367.05-113.45,366.13-112.72,365.72z"/>
		<path class="st6" d="M0.22,384.96L0.22,384.96c0.8,0.23,1.26,1.06,1.03,1.86l-2.06,7.19c-0.23,0.8-1.06,1.26-1.86,1.03l0,0
			c-0.8-0.23-1.26-1.06-1.03-1.86l2.06-7.19C-1.41,385.2-0.58,384.74,0.22,384.96z"/>
		<path class="st5" d="M-49.78,315.72L-49.78,315.72c0.42-0.72,1.34-0.97,2.05-0.55l6.48,3.74c0.72,0.42,0.97,1.34,0.55,2.05l0,0
			c-0.42,0.72-1.34,0.97-2.05,0.55l-6.48-3.74C-49.95,317.35-50.2,316.43-49.78,315.72z"/>
		<path class="st4" d="M-106.04,288.95L-106.04,288.95c0.42-0.72,1.34-0.97,2.05-0.55l6.48,3.74c0.72,0.42,0.97,1.34,0.55,2.05l0,0
			c-0.42,0.72-1.34,0.97-2.05,0.55l-6.48-3.74C-106.21,290.59-106.45,289.67-106.04,288.95z"/>
		<path class="st5" d="M-15.48,419.2L-15.48,419.2c0.42-0.72,1.34-0.97,2.05-0.55l6.48,3.74c0.72,0.42,0.97,1.34,0.55,2.05l0,0
			c-0.42,0.72-1.34,0.97-2.05,0.55l-6.48-3.74C-15.65,420.83-15.89,419.91-15.48,419.2z"/>
		<path class="st4" d="M-0.52,407.95L-0.52,407.95c-0.53-0.64-0.45-1.59,0.19-2.12l5.74-4.8c0.64-0.53,1.59-0.45,2.12,0.19l0,0
			c0.53,0.64,0.45,1.59-0.19,2.12l-5.74,4.8C0.96,408.67,0.01,408.59-0.52,407.95z"/>
	</g>
	<g class="st3">
		<g>
			<g id="XMLID_59_">
				<g>
					<path class="st7" d="M-64.37,391.49l-0.01,0c-0.84,1.33-1.86,2.61-3.26,3.34c-1.39,0.73-3.22,0.81-4.46-0.16l-0.05,0.02
						c-2.13-4.46-3.44-9.32-3.8-14.26c-0.16-2.13-0.14-4.28,0.06-6.4c13.29-8.77,27.52-16.1,42.37-21.82l0.01,0.02
						c2.22,1.12,4.23,2.68,5.97,4.52c4.07,4.25,6.76,10.05,7.47,15.76c1.01,8.18-1.04,16.48-4.28,24.25
						c1.71-0.98,4.09-0.4,5.32,1.15c1.24,1.54,1.37,3.81,0.54,5.6c-0.85,1.78-2.55,3.09-4.51,3.56c1.06,4.61,1.01,9.47-0.15,14.05
						c-0.3,1.18-0.73,2.43-1.75,3.08c-1.18,0.74-2.79,0.4-3.91-0.44c-1.11-0.84-1.84-2.08-2.66-3.32c-0.12,1.2-0.37,2.4-0.92,3.46
						c-0.55,1.07-1.43,2-2.53,2.46c-1.12,0.45-2.47,0.38-3.43-0.34c-1.03-0.77-1.46-2.1-1.96-3.39c-0.62,1.88-1.67,3.71-3.34,4.76
						c-1.67,1.06-4.05,1.15-5.52-0.19c-0.99-0.89-1.42-2.23-1.86-3.52c-0.31,1.52-1.09,2.99-2.37,3.86
						c-1.28,0.86-3.09,1.01-4.35,0.11c-1.55-1.1-1.82-3.26-1.94-5.16l-0.32-4.88c-0.06-0.92-0.16-1.93-0.83-2.57
						c-0.7-0.67-1.82-0.69-2.76-0.4c-0.93,0.3-1.76,0.84-2.67,1.18c-2.79,1.03-6.24-0.22-7.72-2.8c-0.92-1.6-1.05-3.73,0.05-5.22
						c0.96-1.3,2.62-1.84,4.17-2.31c1.3-0.39,2.6-0.78,3.9-1.17c0.42-0.13,0.84-0.25,1.25-0.38c1.2-0.36,2.53-0.83,3.04-1.98
						c0.58-1.28-0.18-2.73-0.79-3.99C-63.38,395.93-64.04,393.74-64.37,391.49z M-34.1,412.2c-0.02-0.86-0.37-1.68-0.76-2.44
						c-1.5-2.96-3.42-6.43-6.55-7.15c-0.58-0.14-1.19,0.07-1.67,0.44c-0.47,0.36-0.83,0.84-1.17,1.33
						c-1.72,2.49-3.11,5.22-3.96,8.13c-0.24,0.84-0.44,1.74-0.24,2.59c0.2,0.85,0.92,1.65,1.8,1.65c0.91,0.01,1.61-0.76,2.15-1.5
						c1.4-1.91,2.53-4.01,3.36-6.23c0.56,0.95,1.14,1.9,1.7,2.85c0.47,0.78,0.95,1.57,1.67,2.12c0.72,0.55,1.74,0.8,2.54,0.38
						C-34.46,413.98-34.08,413.07-34.1,412.2z"/>
					<path class="st8" d="M-34.86,409.77c0.39,0.76,0.74,1.58,0.76,2.44c0.02,0.86-0.36,1.78-1.13,2.18
						c-0.8,0.42-1.82,0.17-2.54-0.38c-0.72-0.55-1.2-1.34-1.67-2.12c-0.56-0.95-1.14-1.9-1.7-2.85c-0.83,2.22-1.96,4.32-3.36,6.23
						c-0.54,0.73-1.24,1.5-2.15,1.5c-0.88-0.01-1.6-0.8-1.8-1.65c-0.2-0.85,0-1.75,0.24-2.59c0.85-2.91,2.24-5.64,3.96-8.13
						c0.33-0.49,0.69-0.97,1.17-1.33c0.48-0.36,1.09-0.57,1.67-0.44C-38.28,403.34-36.37,406.8-34.86,409.77z"/>
					<path class="st8" d="M-62.38,397.98c0.61,1.26,1.36,2.7,0.79,3.99c-0.51,1.15-1.84,1.62-3.04,1.98
						c-0.42,0.13-0.84,0.25-1.25,0.38l-0.1-0.35c-2.49-2.78-4.56-5.92-6.17-9.28l0.05-0.02c1.24,0.97,3.07,0.89,4.46,0.16
						c1.4-0.74,2.42-2.02,3.26-3.34l0.01,0C-64.04,393.74-63.38,395.93-62.38,397.98z"/>
					<path class="st7" d="M-94.94,414.85c0.12-0.66,0.33-1.31,0.57-1.93c0.77-2.01,1.75-3.95,2.93-5.76
						c1.01-1.56,2.19-3.06,3.75-4.06c0.26-0.16,0.52-0.3,0.79-0.43l0-0.01c1.43-0.67,3.08-0.87,4.53-0.31
						c2.45,0.96,3.66,3.87,3.51,6.5c-0.14,2.63-1.33,5.07-2.42,7.47c-2.98,6.6-5.36,13.69-5.11,20.94h-11.45
						c0.52-3.59,0.74-7.22,0.68-10.84l0.01-0.06c-2.42-0.39-4.71-1.67-6.17-3.63c-1.58-2.11-2.09-5.02-1.13-7.48
						c1.05,0.54,2.16,0.99,3.29,1.35c0.87,0.28,1.77,0.5,2.68,0.45c0.91-0.05,1.84-0.41,2.41-1.12c0.28-0.35,0.45-0.76,0.53-1.2
						L-94.94,414.85z"/>
					<path class="st9" d="M-88.32,354.4c0.46,3.16,0.57,6.37,0.32,9.55c-0.04,0.51-0.14,1.1-0.59,1.33
						c-0.29,0.16-0.66,0.1-0.98,0.04c-2.81-0.54-5.57-1.3-8.26-2.26c-1.51-0.54-3.02-1.16-4.22-2.21c-1.2-1.05-2.07-2.62-1.91-4.21
						c0.14-1.42,1.14-2.72,2.48-3.23c1.34-0.5,2.94-0.19,4,0.78c0.2-1.37,0.43-2.75,1.11-3.91c0.68-1.16,1.9-2.09,3.25-2.12
						c1.45-0.05,2.78,0.91,3.54,2.14C-88.82,351.52-88.53,352.97-88.32,354.4z"/>
					<path class="st7" d="M-86.9,402.67L-86.9,402.67c-0.27,0.13-0.53,0.27-0.79,0.43c-1.56,1-2.75,2.49-3.75,4.06
						c-1.17,1.81-2.15,3.75-2.93,5.76c-0.24,0.61-0.45,1.27-0.57,1.93l-0.62-0.09c0.16-0.91-0.1-1.91-0.63-2.69
						c-0.78-1.15-2.02-1.89-3.28-2.49c-2.28-1.1-4.72-1.89-7.22-2.33l-0.06-0.05c0.04-0.04,0.07-0.09,0.1-0.13
						c-1.1-2.31-2.64-4.16-4.19-5.97c-1.54-1.8-3.12-3.61-4.16-5.74c-1.05-2.13-1.5-4.66-0.69-6.89c0.81-2.23,3.11-3.99,5.46-3.68
						c2.43,0.33,4.1,2.54,5.46,4.58c2.5,3.77,4.93,7.59,7.27,11.45c-1.04-4.76-1.8-9.46-2.03-14.19c-0.09-1.75-0.09-3.55,0.51-5.2
						c0.59-1.64,1.9-3.13,3.62-3.49c1.4-0.28,2.88,0.23,3.99,1.14c1.1,0.91,1.86,2.18,2.38,3.51c2.45,6.27,0.09,13.55,2.08,19.99
						L-86.9,402.67z"/>
					<path class="st7" d="M-104.46,415.27c-0.5-0.25-1-0.52-1.48-0.82c-1.04-0.63-2.09-1.43-2.43-2.6
						c-0.49-1.64,0.57-3.29,1.63-4.66l0.06,0.05c2.5,0.44,4.93,1.23,7.22,2.33c1.26,0.6,2.5,1.34,3.28,2.49
						c0.53,0.78,0.79,1.78,0.63,2.69c-0.08,0.44-0.25,0.85-0.53,1.2c-0.57,0.71-1.5,1.07-2.41,1.12c-0.91,0.05-1.81-0.17-2.68-0.45
						C-102.3,416.26-103.41,415.81-104.46,415.27z"/>
				</g>
				<g>
					<path class="st10" d="M-33.52,352.23c2.22,1.12,4.23,2.68,5.97,4.52c4.07,4.25,6.76,10.05,7.47,15.76
						c1.01,8.18-1.04,16.48-4.28,24.25c1.71-0.98,4.09-0.4,5.32,1.15c1.24,1.54,1.37,3.81,0.54,5.6c-0.85,1.78-2.55,3.09-4.51,3.56
						c1.06,4.61,1.01,9.47-0.15,14.05c-0.3,1.18-0.73,2.43-1.75,3.08c-1.18,0.74-2.79,0.4-3.91-0.44c-1.11-0.84-1.84-2.08-2.66-3.32
						c-0.12,1.2-0.37,2.4-0.92,3.46c-0.55,1.07-1.43,2-2.53,2.46c-1.12,0.45-2.47,0.38-3.43-0.34c-1.03-0.77-1.46-2.1-1.96-3.39
						c-0.62,1.88-1.67,3.71-3.34,4.76c-1.67,1.06-4.05,1.15-5.52-0.19c-0.99-0.89-1.42-2.23-1.86-3.52
						c-0.31,1.52-1.09,2.99-2.37,3.86c-1.28,0.86-3.09,1.01-4.35,0.11c-1.55-1.1-1.82-3.26-1.94-5.16l-0.32-4.88
						c-0.06-0.92-0.16-1.93-0.83-2.57c-0.7-0.67-1.82-0.69-2.76-0.4c-0.93,0.3-1.76,0.84-2.67,1.18c-2.79,1.03-6.24-0.22-7.72-2.8
						c-0.92-1.6-1.05-3.73,0.05-5.22c0.96-1.3,2.62-1.84,4.17-2.31c1.3-0.39,2.6-0.78,3.9-1.17c0.42-0.13,0.84-0.25,1.25-0.38
						c1.2-0.36,2.53-0.83,3.04-1.98c0.58-1.28-0.18-2.73-0.79-3.99c-1-2.05-1.67-4.24-1.99-6.49c-0.37-2.41-0.34-4.87,0.09-7.27"/>
					<path class="st10" d="M-65.99,403.98c-2.49-2.78-4.56-5.92-6.17-9.28c-2.13-4.46-3.44-9.32-3.8-14.26
						c-0.16-2.13-0.14-4.28,0.06-6.4"/>
					<path class="st10" d="M-61.72,370.12c1.04-2.48,2.6-4.73,4.55-6.56"/>
					<path class="st10" d="M-35.48,358.56c2.32,1.05,4.2,3.01,5.17,5.35"/>
					<path class="st10" d="M-41.41,402.62c-0.58-0.14-1.19,0.07-1.67,0.44c-0.47,0.36-0.83,0.84-1.17,1.33
						c-1.72,2.49-3.11,5.22-3.96,8.13c-0.24,0.84-0.44,1.74-0.24,2.59c0.2,0.85,0.92,1.65,1.8,1.65c0.91,0.01,1.61-0.76,2.15-1.5
						c1.4-1.91,2.53-4.01,3.36-6.23c0.56,0.95,1.14,1.9,1.7,2.85c0.47,0.78,0.95,1.57,1.67,2.12c0.72,0.55,1.74,0.8,2.54,0.38
						c0.77-0.4,1.15-1.31,1.13-2.18c-0.02-0.86-0.37-1.68-0.76-2.44C-36.37,406.8-38.28,403.34-41.41,402.62z"/>
					<path class="st10" d="M-86.95,402.58c-1.99-6.44,0.38-13.72-2.08-19.99c-0.52-1.33-1.28-2.61-2.38-3.51
						c-1.1-0.91-2.59-1.42-3.99-1.14c-1.72,0.36-3.03,1.85-3.62,3.49c-0.6,1.65-0.6,3.45-0.51,5.2c0.23,4.73,1,9.43,2.03,14.19
						c-2.34-3.86-4.77-7.68-7.27-11.45c-1.36-2.04-3.03-4.25-5.46-4.58c-2.35-0.31-4.65,1.45-5.46,3.68
						c-0.81,2.23-0.35,4.76,0.69,6.89c1.04,2.13,2.62,3.94,4.16,5.74c1.55,1.8,3.09,3.66,4.19,5.97c-0.04,0.04-0.07,0.09-0.1,0.13
						c-1.06,1.37-2.12,3.02-1.63,4.66c0.35,1.17,1.4,1.97,2.43,2.6c0.48,0.29,0.98,0.56,1.48,0.82c1.05,0.54,2.16,0.99,3.29,1.35
						c0.87,0.28,1.77,0.5,2.68,0.45c0.91-0.05,1.84-0.41,2.41-1.12c0.28-0.35,0.45-0.76,0.53-1.2c0.16-0.91-0.1-1.91-0.63-2.69
						c-0.78-1.15-2.02-1.89-3.28-2.49c-2.28-1.1-4.72-1.89-7.22-2.33"/>
					<path class="st10" d="M-104.44,415.21c-0.01,0.02-0.01,0.03-0.02,0.05c-0.96,2.46-0.45,5.37,1.13,7.48
						c1.46,1.97,3.75,3.24,6.17,3.63c0.2,0.04,0.41,0.06,0.61,0.08c2.64,0.28,5.33-0.43,7.63-1.76"/>
					<path class="st10" d="M-97.16,426.43c0.06,3.63-0.16,7.25-0.68,10.84h11.45c-0.25-7.25,2.13-14.34,5.11-20.94
						c1.09-2.4,2.28-4.84,2.42-7.47c0.15-2.63-1.06-5.53-3.51-6.5c-1.45-0.57-3.1-0.36-4.53,0.31l0,0.01
						c-0.27,0.12-0.53,0.26-0.79,0.43c-1.56,1-2.75,2.49-3.75,4.06c-1.17,1.81-2.15,3.75-2.93,5.76c-0.24,0.61-0.45,1.27-0.57,1.93
						c-0.14,0.82-0.13,1.64,0.19,2.39c0.98,2.28,4.35,2.59,6.41,1.21c2.07-1.38,3.13-3.79,4.1-6.09"/>
					<path class="st5" d="M-97.49,354.18c-1.05-0.97-2.66-1.28-4-0.78c-1.34,0.51-2.34,1.81-2.48,3.23
						c-0.16,1.59,0.71,3.16,1.91,4.21c1.2,1.05,2.71,1.67,4.22,2.21c2.69,0.97,5.45,1.72,8.26,2.26c0.33,0.06,0.69,0.12,0.98-0.04
						c0.45-0.23,0.55-0.82,0.59-1.33c0.25-3.18,0.14-6.39-0.32-9.55c-0.2-1.43-0.5-2.89-1.27-4.11c-0.76-1.23-2.1-2.19-3.54-2.14
						c-1.35,0.04-2.56,0.96-3.25,2.12C-97.07,351.44-97.29,352.81-97.49,354.18z"/>
					<path class="st10" d="M-72.11,394.68c1.24,0.97,3.07,0.89,4.46,0.16c1.4-0.74,2.42-2.02,3.26-3.34"/>
				</g>
			</g>
			<g>
				<g>
					<path class="st11" d="M-28.35,384.39c0.43,7.87-2.6,14.43-6.77,14.65c-4.17,0.23-7.89-5.97-8.31-13.83
						c-0.43-7.87,2.6-14.43,6.77-14.65C-32.5,370.33-28.78,376.52-28.35,384.39z"/>
					<path class="st8" d="M-34.43,374.48c-2.4,0.13-4.29,3.08-4.83,7.07l3.86,2.37c0.88,0.54,0.91,1.85,0.07,2.43l-3.46,2.39
						c1.02,3.72,3.15,6.28,5.48,6.15c3.05-0.17,5.28-4.87,4.97-10.51C-28.66,378.75-31.38,374.31-34.43,374.48z"/>
				</g>
				<g>
					<path class="st11" d="M-41.78,385.46c0.43,7.87-2.6,14.43-6.77,14.65c-4.17,0.23-7.89-5.97-8.31-13.83
						c-0.43-7.87,2.6-14.43,6.77-14.65C-45.92,371.4-42.2,377.6-41.78,385.46z"/>
					<path class="st8" d="M-47.86,375.55c-2.4,0.13-4.29,3.08-4.83,7.07l3.86,2.37c0.88,0.54,0.91,1.85,0.07,2.43l-3.46,2.39
						c1.02,3.72,3.15,6.28,5.48,6.15c3.05-0.17,5.28-4.87,4.97-10.51C-42.08,379.82-44.8,375.39-47.86,375.55z"/>
				</g>
			</g>
		</g>
		<g id="XMLID_18_">
			<path id="XMLID_26_" class="st9" d="M-30.24,350.12c-3.41,5.6-9.57,11.26-16.8,15.79c-5.76,3.61-12.19,6.49-18.43,8.02
				l-0.01,0.01c-4.61,1.14-9.12,1.55-13.19,0.98c-1.03-5.15-1.94-10.59-2.76-16.13c-0.33-2.17-0.64-4.37-0.93-6.57
				c-0.98-7.12-1.82-14.31-2.62-21.24c-0.37-3.2-0.71-6.35-1.07-9.4c-0.56-5-1.11-9.75-1.67-14.1c2.56,2,5.23,4.03,7.99,6.1
				c2.1,1.58,4.25,3.17,6.43,4.78c4.99,3.69,10.17,7.44,15.32,11.18c2.02,1.46,4.04,2.92,6.04,4.38c3.89,2.84,7.75,5.66,11.47,8.44
				c2.04,1.51,4.03,3.01,5.98,4.5C-33.04,347.95-31.63,349.04-30.24,350.12z"/>
			<path id="XMLID_25_" class="st4" d="M-73.3,318.35c-1.85,2.54-3.78,4.79-5.29,6.43c-1.95,2.12-4.09,4.24-6.39,6.19
				c-0.37-3.2-0.71-6.35-1.07-9.4c0.92-0.94,1.8-1.94,2.66-2.99c1.3-1.61,2.52-3.28,3.66-5.01
				C-77.63,315.15-75.48,316.75-73.3,318.35z"/>
			<path id="XMLID_24_" class="st4" d="M-51.94,333.91c-0.35,0.41-0.7,0.81-1.01,1.19c-3.52,4.3-7.31,8.36-11.54,11.99
				c-5.34,4.59-10.89,8.47-16.94,11.69c-0.33-2.17-0.64-4.37-0.93-6.57c5.35-3.61,10.45-7.67,14.96-12.14
				c3.35-3.31,6.56-6.79,9.43-10.55C-55.95,330.99-53.94,332.45-51.94,333.91z"/>
			<path id="XMLID_23_" class="st4" d="M-34.49,346.85c-0.12,0.25-0.25,0.48-0.37,0.71c-2.65,5.11-5.58,10.14-9.14,14.67
				c-0.98,1.25-2,2.49-3.05,3.68c-5.76,3.61-12.19,6.49-18.43,8.02c6.18-5.47,12.28-11.02,17.08-17.8
				c3.06-4.34,5.65-8.98,7.93-13.78C-38.43,343.86-36.43,345.36-34.49,346.85z"/>
			<path id="XMLID_20_" class="st5" d="M-97.15,307.49c1.94,0.44,4.06,1.29,6,1.73c0.75,1.54,1.84,3.77,2.58,5.31
				c0.72-1.76,1.47-4.12,2.19-5.89c1.72,0.33,3.77,0.37,5.49,0.7c-1.09-1.47-2.44-3.03-3.53-4.5c0.7-1.56,1.38-3.77,2.09-5.32
				c-1.65,0.14-3.24,1.45-4.54,2.45c-1.72-1.71-3.45-3.42-5.17-5.13c0.24,2.46-0.14,5.58,0.1,8.04
				C-93.49,305.85-95.6,306.52-97.15,307.49z"/>
		</g>
	</g>
	<text transform="matrix(1 0 0 1 -33.4255 302.3971)" class="st3"><tspan x="0" y="0" class="st12 st13 st14">you</tspan><tspan x="3.13" y="20.53" class="st12 st13 st14">are</tspan><tspan x="3.15" y="41.06" class="st12 st13 st14">old</tspan></text>
</g>
<g class="st0">
	<path class="st15" d="M95.41,452.21c-17.02,0-30.86-13.84-30.86-30.86v-80.11c0-45.28,36.84-82.12,82.12-82.12
		c45.28,0,82.12,36.84,82.12,82.12v80.11c0,17.02-13.84,30.86-30.86,30.86H95.41z"/>
	<path class="st2" d="M95.41,446.85c-14.06,0-25.51-11.44-25.51-25.51v-80.11c0-42.33,34.43-76.76,76.76-76.76
		c42.33,0,76.76,34.43,76.76,76.76v80.11c0,14.06-11.44,25.51-25.51,25.51H95.41z"/>
	<path class="st15" d="M146.67,269.83L146.67,269.83c39.44,0,71.4,31.97,71.4,71.4v80.11c0,11.13-9.02,20.15-20.15,20.15H95.41
		c-11.13,0-20.15-9.02-20.15-20.15v-80.11C75.26,301.8,107.23,269.83,146.67,269.83z"/>
	<g class="st3">
		<path class="st4" d="M123.41,286.35L123.41,286.35c-0.49-0.67-0.35-1.61,0.31-2.1l6.01-4.45c0.67-0.49,1.61-0.35,2.1,0.31l0,0
			c0.49,0.67,0.35,1.61-0.31,2.1l-6.01,4.45C124.84,287.16,123.9,287.02,123.41,286.35z"/>
		<path class="st4" d="M194.83,314.28L194.83,314.28c-0.78,0.29-1.64-0.12-1.93-0.9l-2.57-7.02c-0.29-0.78,0.12-1.64,0.9-1.93l0,0
			c0.78-0.29,1.64,0.12,1.93,0.9l2.57,7.02C196.01,313.13,195.61,314,194.83,314.28z"/>
		<path class="st16" d="M104.41,297.59L104.41,297.59c0.45-0.7,1.37-0.91,2.08-0.46l6.31,4.01c0.7,0.45,0.91,1.37,0.46,2.08l0,0
			c-0.45,0.7-1.37,0.91-2.08,0.46l-6.31-4.01C104.18,299.22,103.97,298.29,104.41,297.59z"/>
		<path class="st16" d="M86.93,322.72L86.93,322.72c-0.46-0.69-0.27-1.63,0.43-2.08l6.24-4.12c0.69-0.46,1.63-0.27,2.08,0.43l0,0
			c0.46,0.69,0.27,1.63-0.43,2.08l-6.24,4.12C88.32,323.61,87.39,323.42,86.93,322.72z"/>
		<path class="st6" d="M148.46,292.13L148.46,292.13c0.72-0.41,1.64-0.15,2.05,0.58l3.66,6.52c0.41,0.72,0.15,1.64-0.58,2.05l0,0
			c-0.72,0.41-1.64,0.15-2.05-0.58l-3.66-6.52C147.48,293.45,147.74,292.54,148.46,292.13z"/>
		<path class="st6" d="M84.12,370.31L84.12,370.31c0.72-0.41,1.64-0.15,2.05,0.58l3.66,6.52c0.41,0.72,0.15,1.64-0.58,2.05l0,0
			c-0.72,0.41-1.64,0.15-2.05-0.58l-3.66-6.52C83.14,371.64,83.4,370.72,84.12,370.31z"/>
		<path class="st16" d="M161.66,281.36L161.66,281.36c0.42-0.72,1.34-0.97,2.06-0.55l6.48,3.74c0.72,0.42,0.97,1.34,0.55,2.05l0,0
			c-0.42,0.72-1.34,0.97-2.05,0.55l-6.48-3.74C161.49,283,161.24,282.08,161.66,281.36z"/>
		<path class="st4" d="M204.86,360.39L204.86,360.39c-0.53-0.64-0.45-1.59,0.19-2.12l5.74-4.8c0.64-0.53,1.59-0.45,2.12,0.19l0,0
			c0.53,0.64,0.45,1.59-0.19,2.12l-5.74,4.8C206.34,361.11,205.39,361.02,204.86,360.39z"/>
	</g>
	<g class="st3">
		<path id="XMLID_110_" class="st5" d="M148.33,329.99c-4.28-10.4-10.13-19.79-17.15-27.53c-0.98-1.08-2.15-2.2-3.45-2.04
			c-1.17,0.14-2.09,1.27-2.9,2.33c-2.95,3.86-5.9,7.72-8.85,11.59C125.1,323.58,136.69,327.86,148.33,329.99z"/>
		<path id="XMLID_102_" class="st5" d="M146.34,328.12c4.28-10.4,10.13-19.79,17.15-27.53c0.98-1.08,2.15-2.2,3.45-2.04
			c1.17,0.14,2.09,1.27,2.9,2.33c2.95,3.86,5.9,7.72,8.85,11.59C169.57,321.71,157.98,325.99,146.34,328.12z"/>
		<g id="XMLID_62_">
			<path class="st9" d="M197.05,328.4c-0.73,8.41-1.28,17-1.8,25.65c-0.59,10.09-1.11,20.26-1.77,30.28
				c-0.28,4.37-0.61,8.72-0.97,13c-0.03,0.59-0.09,1.18-0.14,1.77c-9.72-0.38-19.51-0.49-29.34-0.52c-8.6-0.03-17.19,0-25.79-0.02
				c-11.58-0.02-23.14-0.1-34.57-0.54c-0.49-3.6-0.95-7.19-1.44-10.8c-0.52-4.02-1.06-8.04-1.59-12.06
				c-0.76-5.77-1.53-11.52-2.31-17.3c-1.09-8.21-2.18-16.43-3.28-24.63c13.62,0.9,27.1,0.9,40.55,0.35
				c8.68-0.33,17.33-0.92,26.01-1.63C172.72,330.94,184.83,329.68,197.05,328.4z"/>
			<path id="XMLID_101_" class="st17" d="M109.74,380.89c0,2.82-2.1,5.91-5.04,6.34c-1.07,0.16-2.08,0.21-3.07-0.02
				c-0.52-4.02-1.06-8.04-1.59-12.06c0.43-0.26,0.9-0.45,1.4-0.59C105.55,373.44,109.74,376.62,109.74,380.89z"/>
			<path id="XMLID_99_" class="st17" d="M123,357.87c-7.7,0-7.7,11.94,0,11.94C130.7,369.81,130.7,357.87,123,357.87z"/>
			<path id="XMLID_96_" class="st17" d="M127.62,384.14c-6.6,0-6.6,10.24,0,10.24C134.22,394.38,134.22,384.14,127.62,384.14z"/>
			<path id="XMLID_94_" class="st17" d="M176.72,358.38c-3.92,0-7.19,3.27-7.19,7.19c0,3.92,3.27,7.19,7.19,7.19
				c3.92,0,7.19-3.27,7.19-7.19C183.91,361.65,180.64,358.38,176.72,358.38z"/>
			<path id="XMLID_91_" class="st17" d="M163.3,382.52c-2.61-1.53-5.54-0.46-7.17,1.88c-1.22,1.75-0.9,3.91-0.06,5.72
				c1.21,2.59,4.88,3.22,7.17,1.88c1.17-0.69,2.05-1.82,2.41-3.13c0.02-0.07,0.02-0.14,0.03-0.21
				C166.45,386.42,165.3,383.69,163.3,382.52z"/>
			<path id="XMLID_64_" class="st17" d="M193.03,383.98c-0.28,4.37-0.61,8.72-0.97,13c-0.1,0.02-0.21,0.02-0.31,0.02
				c-3.59,0-6.57-2.98-6.57-6.57s2.98-6.59,6.57-6.59C192.18,383.85,192.61,383.9,193.03,383.98z"/>
			<path class="st4" d="M202.66,324.27c-0.21,9.81-0.95,19.06-3.57,29.58c-1.28,0.07-2.56,0.14-3.85,0.19
				c-11.59,0.57-22.77,1.01-33.83,1.39c-8.7,0.31-17.31,0.59-25.98,0.88c-12.46,0.43-25.03,0.88-38.11,1.54
				c-1.25,0.07-2.5,0.12-3.74,0.19c-1.79-8.46-1.79-18.49-3.57-26.95c14.8-0.9,29.6-1.79,44.42-2.69
				c8.67-0.54,17.35-1.06,26.03-1.58C174.52,325.97,188.59,325.12,202.66,324.27z"/>
			<path class="st17" d="M190.92,334.79c-0.08,3.7-0.36,7.2-1.35,11.17c-0.48,0.03-0.97,0.05-1.45,0.07
				c-4.38,0.22-8.59,0.38-12.77,0.52c-3.28,0.12-6.53,0.22-9.81,0.33c-4.7,0.16-9.45,0.33-14.38,0.58
				c-0.47,0.03-0.94,0.05-1.41,0.07c-0.67-3.19-0.67-6.98-1.35-10.17c5.59-0.34,11.17-0.67,16.76-1.01c3.27-0.2,6.55-0.4,9.82-0.6
				C180.3,335.43,185.61,335.11,190.92,334.79z"/>
		</g>
		<path class="st5" d="M163.03,398.57c-8.6-0.03-17.19,0-25.79-0.02c-0.66-14.09-1.25-28.14-1.8-42.23
			c-0.29-7.57-0.57-15.15-0.83-22.74c-0.07-1.72-0.12-3.45-0.17-5.16c8.67-0.54,17.35-1.06,26.03-1.58
			c0.03,1.72,0.09,3.41,0.16,5.11c0.24,7.85,0.5,15.68,0.8,23.48c0.31,8.91,0.66,17.8,0.99,26.69c0.14,3.36,0.26,6.74,0.4,10.1
			C162.87,394.34,162.94,396.45,163.03,398.57z"/>
	</g>
	<text transform="matrix(1 0 0 1 92.5833 427.4117)" class="st19 st13 st14">yay gifts</text>
</g>
<g class="st0">
	<path class="st15" d="M-98.6,240.88c-17.02,0-30.86-13.84-30.86-30.86v-80.11c0-45.28,36.84-82.12,82.12-82.12
		c45.28,0,82.12,36.84,82.12,82.12v80.11c0,17.02-13.84,30.86-30.86,30.86H-98.6z"/>
	<path class="st2" d="M-98.6,235.52c-14.06,0-25.51-11.44-25.51-25.51v-80.11c0-42.33,34.43-76.76,76.76-76.76
		c42.33,0,76.76,34.43,76.76,76.76v80.11c0,14.06-11.44,25.51-25.51,25.51H-98.6z"/>
	<path class="st15" d="M-47.35,58.5L-47.35,58.5c39.44,0,71.4,31.97,71.4,71.4v80.11c0,11.13-9.02,20.15-20.15,20.15H-98.6
		c-11.13,0-20.15-9.02-20.15-20.15v-80.11C-118.75,90.47-86.78,58.5-47.35,58.5z"/>
	<g class="st3">
		<path class="st4" d="M-71.84,78.12L-71.84,78.12c-0.49-0.67-0.35-1.61,0.31-2.1l6.01-4.45c0.67-0.49,1.61-0.35,2.1,0.31l0,0
			c0.49,0.67,0.35,1.61-0.31,2.1l-6.01,4.45C-70.4,78.92-71.34,78.78-71.84,78.12z"/>
		<path class="st4" d="M-0.42,106.05L-0.42,106.05c-0.78,0.29-1.64-0.12-1.93-0.9l-2.57-7.02c-0.29-0.78,0.12-1.64,0.9-1.93l0,0
			c0.78-0.29,1.64,0.12,1.93,0.9l2.57,7.02C0.77,104.9,0.36,105.76-0.42,106.05z"/>
		<path class="st16" d="M-90.83,89.35L-90.83,89.35c0.45-0.7,1.37-0.91,2.08-0.46l6.31,4.01c0.7,0.45,0.91,1.37,0.46,2.08l0,0
			c-0.45,0.7-1.37,0.91-2.08,0.46l-6.31-4.01C-91.07,90.98-91.28,90.06-90.83,89.35z"/>
		<path class="st16" d="M-101.93,118.05L-101.93,118.05c-0.46-0.69-0.27-1.63,0.43-2.08l6.24-4.12c0.69-0.46,1.63-0.27,2.08,0.43
			l0,0c0.46,0.69,0.27,1.63-0.43,2.08l-6.24,4.12C-100.54,118.94-101.47,118.75-101.93,118.05z"/>
		<path class="st16" d="M12.12,138.49L12.12,138.49c-0.7,0.45-1.63,0.25-2.08-0.44l-4.07-6.27c-0.45-0.7-0.25-1.63,0.44-2.08l0,0
			c0.7-0.45,1.63-0.25,2.08,0.44l4.07,6.27C13.02,137.11,12.82,138.04,12.12,138.49z"/>
		<path class="st6" d="M-67.73,97.77L-67.73,97.77c0.72-0.41,1.64-0.15,2.05,0.58l3.66,6.52c0.41,0.72,0.15,1.64-0.58,2.05l0,0
			c-0.72,0.41-1.64,0.15-2.05-0.58l-3.66-6.52C-68.71,99.1-68.46,98.18-67.73,97.77z"/>
		<path class="st6" d="M-106.31,137.42L-106.31,137.42c0.72-0.41,1.64-0.15,2.05,0.58l3.66,6.52c0.41,0.72,0.15,1.64-0.58,2.05l0,0
			c-0.72,0.41-1.64,0.15-2.05-0.58l-3.66-6.52C-107.29,138.74-107.03,137.82-106.31,137.42z"/>
		<path class="st16" d="M-33.59,73.12L-33.59,73.12c0.42-0.72,1.34-0.97,2.05-0.55l6.48,3.74c0.72,0.42,0.97,1.34,0.55,2.05l0,0
			c-0.42,0.72-1.34,0.97-2.06,0.55l-6.48-3.74C-33.76,74.76-34,73.84-33.59,73.12z"/>
		<path class="st4" d="M-107.92,173.08L-107.92,173.08c0.42-0.72,1.34-0.97,2.06-0.55l6.48,3.74c0.72,0.42,0.97,1.34,0.55,2.06l0,0
			c-0.42,0.72-1.34,0.97-2.05,0.55l-6.48-3.74C-108.09,174.72-108.34,173.8-107.92,173.08z"/>
		<path class="st16" d="M5.56,174.6L5.56,174.6c0.42-0.72,1.34-0.97,2.05-0.55l6.48,3.74c0.72,0.42,0.97,1.34,0.55,2.05l0,0
			c-0.42,0.72-1.34,0.97-2.05,0.55l-6.48-3.74C5.39,176.24,5.14,175.32,5.56,174.6z"/>
		<path class="st4" d="M6.08,163.74L6.08,163.74c-0.53-0.64-0.45-1.59,0.19-2.12l5.74-4.8c0.64-0.53,1.59-0.45,2.12,0.19l0,0
			c0.53,0.64,0.45,1.59-0.19,2.12l-5.74,4.8C7.56,164.46,6.61,164.38,6.08,163.74z"/>
	</g>
	<g class="st3">
		<g id="XMLID_33_">
			<path id="XMLID_146_" class="st17" d="M-4.52,181.94c-25.03,7.26-51.78,10.75-76.39,2.15c-0.63-5.53-0.87-1.81-1.58-7.31
				c-1.18-9.21-2.44-18.37-3.65-27.56c-0.92-6.96-1.81-13.92-2.6-20.92c26.24-1.36,56.43-0.77,82.67-2.13
				c0.34,5.72,0.61,11.48,0.85,17.25c0.4,9.09,0.74,18.23,1.15,27.38C-3.72,179.01-5.11,173.71-4.52,181.94z"/>
			<path id="XMLID_145_" class="st9" d="M-29.61,105.62c-1.14,0.31-2.26,0.73-3.36,1.14c-5.04,1.91-10.09,3.81-15.13,5.72
				c-3.86,1.46-33.07,11.96-40.64,15.82c24.83,0.22,48.63,3.7,73.45,2.91c2.87-0.09,6.08-0.34,7.97-2.5
				c2.32-2.65,1.44-6.78-0.1-9.94c-1.69-3.46-4.71-7.33-8.07-9.28c-3.05-1.77-6.96-4.22-10.58-4.34
				C-27.28,105.11-28.46,105.3-29.61,105.62z"/>
			<path id="XMLID_143_" class="st5" d="M-4.08,170.79c-3.86,0.79-7.71,1.42-11.39,2.01c-11.07,1.81-22.24,3.21-33.44,3.87
				c-10.59,0.62-21.23,0.77-31.82,0.21c-0.58-0.03-1.16-0.06-1.76-0.09c-0.37-2.9-0.75-5.8-1.14-8.68c-0.33-2.5-0.66-4.99-1-7.48
				c-0.51-3.79-1.02-7.59-1.52-11.4c2.43,0.21,4.83,0.43,7.17,0.53c10.02,0.45,20.05,0.47,30.06-0.12
				c9.49-0.56,18.83-1.46,28.05-3.04c5.11-0.87,10.36-2.14,15.64-3.18c0.13,3,0.26,6.01,0.38,9.02c0.1,2.66,0.21,5.31,0.33,7.98
				C-4.38,163.86-4.24,167.32-4.08,170.79z"/>
			<path id="XMLID_142_" class="st4" d="M-4.52,160.41c-6.01,1.56-12.32,2.52-18.18,3.53c-9.49,1.65-19.05,2.92-28.66,3.61
				c-9.86,0.7-19.76,0.98-29.65,0.62c-0.86-0.03-1.73-0.06-2.62-0.07c-0.33-2.5-0.66-4.99-1-7.48c1.82,0.16,3.62,0.29,5.36,0.33
				c9.31,0.22,18.63,0.07,27.91-0.64c9.54-0.74,19.05-1.87,28.46-3.62c6.03-1.12,12.03-2.88,18.06-4.24
				C-4.74,155.09-4.63,157.74-4.52,160.41z"/>
			<path id="XMLID_1_" class="st9" d="M-5.91,124.42c0.61,2.71,0.02,6.52-0.79,9.17c-0.81,2.65-2.66,5.07-5.21,6.14
				c-2.56,1.07-6.08,0.8-7.92-1.28c-0.68,2.12-2.96,3.61-5.18,3.39c-2.22-0.23-4.16-2.37-4.4-4.59c-1.62,2.31-3.78,4.44-6.52,5.11
				c-2.74,0.67-5.85-0.82-6.72-3.5c-1.33,2.74-4.43,4.5-7.46,4.25c-3.03-0.25-6.39-2.36-7.25-5.28c-0.73,3.81-4.49,6.79-8.36,6.64
				s-7.97-4.12-8.39-7.97c-0.63,2.47-3.41,3.98-5.94,3.7c-2.53-0.28-4.72-2.01-6.15-4.11c-1.44-2.1-2.14-4.45-2.52-7.79"/>
			<path id="XMLID_140_" class="st17" d="M-13.97,116.68c-4.31-11.06-19.28-7.6-27.56-4.67c-2.6,0.92-22.87,7.61-21.62,10.8
				c0.77,1.96,5.94-0.56,7.18-0.87c2.61-0.66,5.19-1.33,7.74-2.19c5.17-1.75,10.29-3.79,15.7-4.52c5.41-0.72,11.27,0.02,15.57,3.37
				c0.74,0.58,1.68,1.26,2.53,0.85C-13.51,118.99-13.6,117.64-13.97,116.68z"/>
			<g id="XMLID_135_">
				<path id="XMLID_139_" class="st6" d="M-42.38,121.25c-0.38-0.04-0.7,0.01-0.97,0.31c-0.32,0.36-0.32,0.83,0,1.19
					c0.27,0.3,0.59,0.36,0.97,0.31C-41.22,122.92-41.22,121.39-42.38,121.25z"/>
				<path id="XMLID_138_" class="st18" d="M-44.72,86.56c-0.02-0.45-0.67-0.45-0.7,0c-0.06,1.14-0.14,2.32-0.06,3.47
					c0.04,0.53,0.78,0.53,0.82,0C-44.58,88.88-44.66,87.7-44.72,86.56z"/>
				<path id="XMLID_137_" class="st4" d="M-40.76,126.25h-6.06c-0.1-1.1-0.18-2.2-0.26-3.3c-0.05-0.61-0.1-1.22-0.13-1.83
					c-0.13-1.75-0.24-3.51-0.33-5.26c-0.05-0.74-0.09-1.47-0.12-2.2c-0.11-2.09-0.2-4.19-0.27-6.29c-0.02-0.73-0.04-1.45-0.06-2.18
					c-0.06-2.04-0.1-4.08-0.12-6.12c-0.01-0.87-0.01-1.74-0.01-2.61c-0.01-2.31,0-4.62,0.04-6.94c1.85,0,3.76-0.35,5.62-0.35
					c0.07,1.31,0.13,2.62,0.19,3.93c0.04,0.79,0.08,1.6,0.12,2.39c0.1,1.97,0.19,3.93,0.27,5.89c0.04,0.85,0.07,1.69,0.11,2.53
					c0.09,1.98,0.18,3.96,0.27,5.93c0.03,0.75,0.07,1.5,0.1,2.25c0.09,2.02,0.19,4.04,0.27,6.05c0.03,0.68,0.06,1.34,0.1,2.01
					C-40.95,122.17-40.86,124.22-40.76,126.25z"/>
				<path id="XMLID_136_" class="st6" d="M-45.11,78.3c-0.96,1.02-1.93,2.05-2.57,3.29c-0.64,1.24-0.93,2.73-0.46,4.04
					c0.47,1.31,1.84,2.34,3.22,2.14c1.25-0.19,2.22-1.33,2.47-2.57s-0.09-2.54-0.65-3.67C-43.66,80.39-44.44,79.37-45.11,78.3z"/>
			</g>
		</g>
		<path class="st17" d="M-12.18,126.03c-11.43,5.26-23.77,8.13-36.35,8.54c-12.54,0.41-24.03-2.19-36.1-5.15
			c-0.83-0.2-1.45,1.04-0.61,1.44c11.26,5.37,25.05,6.85,37.39,6.4c12.84-0.47,25.44-3.48,37.23-8.56
			C-8.8,127.92-10.36,125.19-12.18,126.03z"/>
	</g>
	<text transform="matrix(1 0 0 1 -102.1638 215.7614)" class="st19 st13 st14">yay cake</text>
</g>
<g>
	<path class="st17" d="M92.46,236.66c-15.39,0-27.91-13.05-27.91-29.1V81.11c0-16.04,12.52-29.1,27.91-29.1h108.41
		c15.39,0,27.91,13.05,27.91,29.1v126.45c0,16.04-12.52,29.1-27.91,29.1H92.46z"/>
	<path class="st6" d="M92.46,231.3c-12.44,0-22.56-10.65-22.56-23.74V81.11c0-13.09,10.12-23.74,22.56-23.74h108.41
		c12.44,0,22.56,10.65,22.56,23.74v126.45c0,13.09-10.12,23.74-22.56,23.74H92.46z"/>
	<path class="st17" d="M75.26,81.11v126.45c0,10.15,7.7,18.38,17.2,18.38h108.41c9.5,0,17.2-8.23,17.2-18.38V81.11
		c0-10.15-7.7-18.38-17.2-18.38H92.46C82.96,62.72,75.26,70.95,75.26,81.11z"/>
	<g>
		<path class="st4" d="M125.47,80.36L125.47,80.36c-0.49-0.67-0.35-1.61,0.31-2.1l6.01-4.45c0.67-0.49,1.61-0.35,2.1,0.31l0,0
			c0.49,0.67,0.35,1.61-0.31,2.1l-6.01,4.45C126.9,81.17,125.96,81.03,125.47,80.36z"/>
		<path class="st4" d="M187.26,154.9L187.26,154.9c-0.78,0.29-1.64-0.12-1.93-0.9l-2.57-7.02c-0.29-0.78,0.12-1.64,0.9-1.93l0,0
			c0.78-0.29,1.64,0.12,1.93,0.9l2.57,7.02C188.44,153.75,188.04,154.62,187.26,154.9z"/>
		<path class="st5" d="M85.14,93.9L85.14,93.9c0.45-0.7,1.37-0.91,2.08-0.46l6.31,4.01c0.7,0.45,0.91,1.37,0.46,2.08l0,0
			c-0.45,0.7-1.37,0.91-2.08,0.46l-6.31-4.01C84.91,95.53,84.7,94.6,85.14,93.9z"/>
		<path class="st5" d="M83.76,135.3L83.76,135.3c-0.46-0.69-0.27-1.63,0.43-2.08l6.24-4.12c0.69-0.46,1.63-0.27,2.08,0.43l0,0
			c0.46,0.69,0.27,1.63-0.43,2.08l-6.24,4.12C85.15,136.19,84.22,136,83.76,135.3z"/>
		<path class="st5" d="M204.72,165.94L204.72,165.94c-0.7,0.45-1.63,0.25-2.08-0.44l-4.07-6.27c-0.45-0.7-0.25-1.63,0.44-2.08l0,0
			c0.7-0.45,1.63-0.25,2.08,0.44l4.07,6.27C205.62,164.55,205.42,165.49,204.72,165.94z"/>
		<path class="st6" d="M130.39,94.11L130.39,94.11c0.72-0.41,1.64-0.15,2.05,0.58l3.66,6.52c0.41,0.72,0.15,1.64-0.58,2.05l0,0
			c-0.72,0.41-1.64,0.15-2.05-0.58l-3.66-6.52C129.41,95.44,129.66,94.52,130.39,94.11z"/>
		<path class="st6" d="M87.01,185.73L87.01,185.73c0.72-0.41,1.64-0.15,2.05,0.58l3.66,6.52c0.41,0.72,0.15,1.64-0.58,2.05l0,0
			c-0.72,0.41-1.64,0.15-2.05-0.58l-3.66-6.52C86.02,187.05,86.28,186.14,87.01,185.73z"/>
		<path class="st6" d="M196.62,174.86L196.62,174.86c0.8,0.23,1.26,1.06,1.03,1.86l-2.06,7.19c-0.23,0.8-1.06,1.26-1.86,1.03l0,0
			c-0.8-0.23-1.26-1.06-1.03-1.86l2.06-7.19C194.99,175.09,195.82,174.63,196.62,174.86z"/>
		<path class="st5" d="M146.62,105.61L146.62,105.61c0.42-0.72,1.34-0.97,2.05-0.55l6.48,3.74c0.72,0.42,0.97,1.34,0.55,2.05l0,0
			c-0.42,0.72-1.34,0.97-2.05,0.55l-6.48-3.74C146.45,107.25,146.2,106.33,146.62,105.61z"/>
		<path class="st4" d="M87.96,209.42L87.96,209.42c0.42-0.72,1.34-0.97,2.05-0.55l6.48,3.74c0.72,0.42,0.97,1.34,0.55,2.05l0,0
			c-0.42,0.72-1.34,0.97-2.06,0.55l-6.48-3.74C87.79,211.06,87.54,210.14,87.96,209.42z"/>
		<path class="st5" d="M180.92,209.09L180.92,209.09c0.42-0.72,1.34-0.97,2.05-0.55l6.48,3.74c0.72,0.42,0.97,1.34,0.55,2.05l0,0
			c-0.42,0.72-1.34,0.97-2.05,0.55l-6.48-3.74C180.75,210.73,180.5,209.81,180.92,209.09z"/>
		<path class="st4" d="M195.87,197.84L195.87,197.84c-0.53-0.64-0.45-1.59,0.19-2.12l5.74-4.8c0.64-0.53,1.59-0.45,2.12,0.19l0,0
			c0.53,0.64,0.45,1.59-0.19,2.12l-5.74,4.8C197.36,198.57,196.41,198.48,195.87,197.84z"/>
	</g>
	<text transform="matrix(1 0 0 1 159.8127 89.8605)"><tspan x="0" y="0" class="st12 st13 st14">you</tspan><tspan x="3.13" y="20.53" class="st12 st13 st14">are</tspan><tspan x="3.15" y="41.06" class="st12 st13 st14">old</tspan></text>
	<g>
		<g>
			<g id="XMLID_61_">
				<g>
					<path class="st7" d="M108.22,177.65c-6.68-0.02-13.37-0.01-20.05,0.05c-2.9,0.03-5.37-3.45-5.68-6.91
						c-0.31-3.46,1.37-6.95,4.01-9.2c2.64-2.25,6.15-3.35,9.63-3.44c-3.02-3.74-2.98-9.38-0.11-13.12c2.86-3.73,8.3-5.25,12.68-3.53
						c0.83-10.93,9.28-20.27,19.59-22.23c10.31-1.97,21.6,3.61,26.31,12.99c2.41-0.76,5.72,0.1,7.9,2.21
						c2.17,2.12,3.12,5.41,2.43,8.36c4.34,1.02,8.12,4.56,9.64,8.96c1.53,4.4,0.74,9.53-2.03,13.26c3.14,0.77,5.94,2.8,7.66,5.53
						c1.72,2.74,2.33,6.15,1.66,9.31c-6.22-0.36-12.44-0.69-18.68-0.96c-4-0.18-8.02-0.33-12.03-0.47
						c-4.87-0.17-9.75-0.31-14.64-0.42c-5.02-0.13-10.04-0.22-15.06-0.28C117.05,177.71,112.64,177.68,108.22,177.65z"/>
					<path class="st9" d="M163.18,213.94c0.01,0.75-0.1,1.5-0.33,2.21c-0.44,1.39-1.3,2.67-1.46,4.12
						c-0.22,2.01,0.93,3.89,2.04,5.58c-5.29,0.04-10.56,0.07-15.82,0.09l0-0.13c-0.94-4.06,3.45-7.92,2.59-12
						c-0.61-2.93-3.78-4.89-4.15-7.86c-0.27-2.24,1.12-4.29,2.42-6.14c1.29-1.85,2.6-4,2.12-6.2c-0.37-1.75-1.79-3.06-2.62-4.64
						c-1.83-3.46-0.31-8.6,3.19-10.38l0-0.11c4.01,0.14,8.02,0.29,12.03,0.47l0,0.1c-0.42,1.98-1.75,3.63-2.82,5.36
						c-1.08,1.72-1.96,3.79-1.39,5.74c0.71,2.45,3.55,4.1,3.55,6.66c-0.01,2.16-2.06,3.72-2.93,5.7c-0.89,2.03-0.33,4.55,1.21,6.12
						C162.22,210.05,163.17,211.92,163.18,213.94z"/>
					<path class="st4" d="M151.16,178.47l0,0.11c-3.49,1.78-5.01,6.92-3.19,10.38c0.83,1.58,2.25,2.89,2.62,4.64
						c0.47,2.2-0.83,4.35-2.12,6.2c-1.3,1.85-2.69,3.9-2.42,6.14c0.37,2.97,3.53,4.93,4.15,7.86c0.86,4.07-3.53,7.93-2.59,12l0,0.13
						c-4.41,0.01-8.82,0.01-13.22,0.01l0-0.04c-1.11-3.81,2.86-7.58,2.16-11.49c-0.46-2.57-2.84-4.44-3.44-6.97
						c-0.63-2.62,0.76-5.26,2.15-7.58c1.38-2.31,2.86-4.86,2.44-7.52c-0.39-2.43-2.29-4.35-3.05-6.69c-0.84-2.6-0.08-5.65,1.88-7.55
						l0-0.05C141.4,178.16,146.29,178.3,151.16,178.47z"/>
					<path class="st4" d="M137.69,192.34c0.42,2.66-1.06,5.21-2.44,7.52c-1.39,2.32-2.77,4.95-2.15,7.58
						c0.6,2.53,2.98,4.4,3.44,6.97c0.7,3.91-3.27,7.68-2.16,11.49l0,0.04c-4.5,0-8.99-0.01-13.48-0.01l0-0.05
						c-0.79-2.55,0.25-5.28,1.31-7.73c1.05-2.46,2.15-5.14,1.47-7.73c-0.69-2.66-3.17-4.74-3.26-7.48
						c-0.06-2.09,1.31-3.91,2.44-5.68c1.13-1.77,2.09-4,1.2-5.9c-0.79-1.67-2.71-2.43-4.01-3.74c-1.3-1.31-1.93-3.24-1.69-5.06
						c0.25-1.83,1.5-3.82,3.09-4.73l0-0.05c5.02,0.06,10.04,0.15,15.06,0.28l0,0.05c-1.96,1.91-2.71,4.95-1.88,7.55
						C135.39,188,137.3,189.91,137.69,192.34z"/>
					<path class="st5" d="M124.07,191.36c0.89,1.9-0.07,4.13-1.2,5.9c-1.14,1.77-2.5,3.59-2.44,5.68c0.08,2.75,2.56,4.83,3.26,7.48
						c0.68,2.59-0.42,5.27-1.47,7.73c-1.05,2.45-2.1,5.18-1.31,7.73l0,0.05c-4.38-0.01-8.76-0.02-13.13-0.03
						c-1.94-2.2-0.73-5.66,0.83-8.27c1.56-2.6,3.5-5.4,2.95-8.38c-0.57-3.14-3.81-5.53-3.66-8.72c0.17-3.39,4.19-6.04,3.41-9.34
						c-0.58-2.45-3.44-3.52-4.91-5.55c-1.81-2.51-0.89-6.51,1.82-7.98c4.41,0.02,8.83,0.06,13.24,0.12l0,0.05
						c-1.6,0.92-2.84,2.9-3.09,4.73c-0.25,1.82,0.39,3.75,1.69,5.06C121.36,188.93,123.28,189.69,124.07,191.36z"/>
				</g>
				<g>
					<path class="st10" d="M163.19,178.94c6.24,0.27,12.46,0.59,18.68,0.96c0.67-3.17,0.06-6.58-1.66-9.31
						c-1.72-2.73-4.53-4.76-7.66-5.53c2.77-3.74,3.56-8.87,2.03-13.26c-1.52-4.4-5.31-7.94-9.64-8.96c0.7-2.95-0.26-6.24-2.43-8.36
						c-2.18-2.11-5.49-2.98-7.9-2.21c-4.7-9.39-15.99-14.96-26.31-12.99c-10.32,1.97-18.76,11.3-19.59,22.23
						c-4.38-1.72-9.82-0.21-12.68,3.53c-2.86,3.74-2.91,9.38,0.11,13.12c-3.48,0.09-6.99,1.19-9.63,3.44
						c-2.65,2.25-4.32,5.74-4.01,9.2c0.31,3.46,2.78,6.94,5.68,6.91c6.69-0.06,13.37-0.07,20.05-0.05
						c4.41,0.02,8.83,0.06,13.24,0.12c5.02,0.06,10.04,0.15,15.06,0.28c4.88,0.11,9.76,0.25,14.64,0.42
						C155.17,178.61,159.18,178.76,163.19,178.94z"/>
					<path class="st10" d="M108.23,177.65c-0.01,0-0.01,0.01-0.01,0.01c-2.71,1.47-3.63,5.48-1.82,7.98
						c1.47,2.04,4.33,3.11,4.91,5.55c0.78,3.3-3.25,5.95-3.41,9.34c-0.16,3.19,3.08,5.57,3.66,8.72c0.55,2.98-1.38,5.78-2.95,8.38
						c-1.56,2.6-2.77,6.07-0.83,8.27c4.38,0.01,8.75,0.02,13.13,0.03c4.49,0,8.98,0.01,13.48,0.01c4.4,0,8.81,0,13.22-0.01
						c5.26-0.02,10.53-0.04,15.82-0.09c-1.1-1.69-2.26-3.57-2.04-5.58c0.16-1.45,1.02-2.72,1.46-4.12c0.23-0.71,0.34-1.46,0.33-2.21
						c-0.01-2.02-0.96-3.89-2.37-5.32c-1.54-1.57-2.1-4.1-1.21-6.12c0.87-1.98,2.92-3.54,2.93-5.7c0-2.56-2.84-4.2-3.55-6.66
						c-0.57-1.95,0.31-4.02,1.39-5.74c1.08-1.72,2.4-3.38,2.82-5.36"/>
					<path class="st10" d="M121.46,177.82c-1.6,0.92-2.84,2.9-3.09,4.73c-0.25,1.82,0.39,3.75,1.69,5.06
						c1.3,1.32,3.22,2.07,4.01,3.74c0.89,1.9-0.07,4.13-1.2,5.9c-1.14,1.77-2.5,3.59-2.44,5.68c0.08,2.75,2.56,4.83,3.26,7.48
						c0.68,2.59-0.42,5.27-1.47,7.73c-1.05,2.45-2.1,5.18-1.31,7.73"/>
					<path class="st10" d="M136.52,178.1c-1.96,1.91-2.71,4.95-1.88,7.55c0.75,2.34,2.66,4.26,3.05,6.69
						c0.42,2.66-1.06,5.21-2.44,7.52c-1.39,2.32-2.77,4.95-2.15,7.58c0.6,2.53,2.98,4.4,3.44,6.97c0.7,3.91-3.27,7.68-2.16,11.49"/>
					<path class="st10" d="M151.16,178.58c-3.49,1.78-5.01,6.92-3.19,10.38c0.83,1.58,2.25,2.89,2.62,4.64
						c0.47,2.2-0.83,4.35-2.12,6.2c-1.3,1.85-2.69,3.9-2.42,6.14c0.37,2.97,3.53,4.93,4.15,7.86c0.86,4.07-3.53,7.93-2.59,12"/>
					<g>
						<path class="st10" d="M116.67,155.58c-2.27,0.43-4.25,2.16-4.98,4.36"/>
						<path class="st10" d="M150.5,155.21c2.01,0.2,3.89,1.41,4.91,3.16"/>
						<g>
							<g>
								<path class="st9" d="M115.81,149.28c-0.02,0.91-1.5,1.62-3.32,1.58c-1.82-0.03-3.27-0.79-3.26-1.7
									c0.02-0.91,1.5-1.62,3.32-1.58C114.37,147.61,115.83,148.38,115.81,149.28z"/>
								<path class="st9" d="M158.06,150.04c-0.02,0.91-1.5,1.62-3.32,1.58c-1.82-0.03-3.27-0.79-3.26-1.7
									c0.02-0.91,1.5-1.62,3.32-1.58C156.62,148.37,158.07,149.13,158.06,150.04z"/>
							</g>
							<g>
								<path class="st11" d="M130.3,147.48c-0.09,5.07-2.45,9.14-5.27,9.09c-2.82-0.05-5.04-4.2-4.94-9.27
									c0.09-5.07,2.45-9.14,5.27-9.09C128.18,138.26,130.39,142.41,130.3,147.48z"/>
								<path class="st8" d="M126.68,140.83c-1.63-0.03-3.04,1.77-3.6,4.31l2.49,1.7c0.57,0.39,0.53,1.23-0.07,1.57l-2.45,1.38
									c0.51,2.44,1.82,4.18,3.4,4.21c2.07,0.04,3.8-2.88,3.86-6.52C130.37,143.85,128.74,140.87,126.68,140.83z"/>
							</g>
							<g>
								<path class="st11" d="M147.03,147.78c-0.09,5.07-2.45,9.14-5.27,9.09c-2.82-0.05-5.04-4.2-4.94-9.27
									c0.09-5.07,2.45-9.14,5.27-9.09C144.91,138.56,147.12,142.71,147.03,147.78z"/>
								<path class="st8" d="M143.41,141.13c-1.63-0.03-3.04,1.77-3.6,4.31l2.49,1.7c0.57,0.39,0.53,1.23-0.07,1.57l-2.45,1.37
									c0.51,2.44,1.82,4.18,3.4,4.21c2.07,0.04,3.8-2.88,3.86-6.52C147.1,144.14,145.47,141.17,143.41,141.13z"/>
							</g>
						</g>
						<path class="st10" d="M113.59,157.53c4.76,5.96,12.42,9.49,20.04,9.25s15.04-4.25,19.42-10.5"/>
						<path class="st10" d="M117.03,137.42c1.25-2.91,3.77-5.24,6.77-6.25"/>
						<path class="st10" d="M141.9,131.44c3.26,0.22,6.37,2,8.22,4.69"/>
						<path class="st10" d="M127.78,169.88c3.2,1.55,7.07,1.64,10.34,0.25"/>
					</g>
				</g>
			</g>
		</g>
		<g id="XMLID_5_">
			<path id="XMLID_144_" class="st9" d="M145.2,119.87c-2.8,4.04-7.66,8.01-13.28,11.08c-4.48,2.45-9.41,4.32-14.16,5.19l-0.01,0
				c-3.5,0.65-6.9,0.76-9.92,0.15c-0.54-3.9-0.98-8.01-1.35-12.2c-0.15-1.64-0.28-3.3-0.41-4.96c-0.41-5.38-0.73-10.8-1.02-16.02
				c-0.13-2.41-0.25-4.79-0.39-7.09c-0.2-3.77-0.4-7.35-0.62-10.63c1.83,1.61,3.74,3.25,5.71,4.92c1.5,1.28,3.04,2.57,4.61,3.86
				c3.58,2.98,7.28,6.02,10.97,9.05c1.45,1.18,2.89,2.37,4.33,3.55c2.79,2.3,5.55,4.58,8.22,6.83c1.46,1.22,2.88,2.44,4.27,3.64
				C143.2,118.13,144.21,119,145.2,119.87z"/>
			<path id="XMLID_132_" class="st4" d="M114.38,94.17c-1.5,1.82-3.04,3.42-4.25,4.58c-1.55,1.5-3.25,2.99-5.06,4.35
				c-0.13-2.41-0.25-4.79-0.39-7.09c0.73-0.66,1.44-1.37,2.12-2.12c1.04-1.15,2.04-2.35,2.96-3.59
				C111.28,91.58,112.81,92.87,114.38,94.17z"/>
			<path id="XMLID_129_" class="st4" d="M129.68,106.77c-0.28,0.29-0.56,0.57-0.81,0.85c-2.83,3.06-5.84,5.94-9.17,8.46
				c-4.2,3.2-8.53,5.86-13.21,8c-0.15-1.64-0.28-3.3-0.41-4.96c4.17-2.47,8.16-5.28,11.74-8.43c2.65-2.33,5.21-4.8,7.53-7.48
				C126.8,104.41,128.24,105.59,129.68,106.77z"/>
			<path id="XMLID_103_" class="st4" d="M142.17,117.24c-0.1,0.18-0.21,0.34-0.31,0.51c-2.21,3.71-4.63,7.34-7.49,10.58
				c-0.79,0.89-1.61,1.77-2.45,2.62c-4.48,2.45-9.41,4.32-14.16,5.19c4.87-3.82,9.69-7.71,13.58-12.57
				c2.48-3.12,4.63-6.47,6.55-9.97C139.35,114.82,140.78,116.04,142.17,117.24z"/>
			<path id="XMLID_19_" class="st5" d="M97,84.98c1.44,0.42,2.98,1.14,4.42,1.56c0.49,1.18,1.21,2.9,1.7,4.09
				c0.62-1.29,1.28-3.02,1.9-4.31c1.27,0.32,2.81,0.45,4.08,0.77c-0.75-1.15-1.69-2.38-2.44-3.52c0.59-1.13,1.2-2.76,1.8-3.89
				c-1.24,0.04-2.49,0.94-3.51,1.63c-1.21-1.36-2.43-2.71-3.65-4.07c0.07,1.86-0.35,4.17-0.28,6.02C99.81,83.92,98.2,84.32,97,84.98
				z"/>
		</g>
	</g>
</g>
</svg>
